<?xml version="1.0" encoding="iso-8859-1"?>
<!-- Generator: Adobe Illustrator 19.0.0, SVG Export Plug-In . SVG Version: 6.00 Build 0)  -->
<svg xmlns="http://www.w3.org/2000/svg" xmlns:xlink="http://www.w3.org/1999/xlink" version="1.1" id="Layer_1" x="0px" y="0px" viewBox="0 0 456 456" style="enable-background:new 0 0 456 456;" xml:space="preserve">
<ellipse style="fill:#B5B5B5;" cx="77.871" cy="338.088" rx="55.999" ry="55.999"/>
<path style="fill:#9B9B9B;" d="M117.488,298.512c-13.736-13.736-32.824-18.832-50.544-15.312c10.496,2.08,20.52,7.184,28.648,15.312  c21.872,21.872,21.872,57.328,0,79.192c-8.136,8.136-18.152,13.232-28.648,15.312c17.72,3.512,36.808-1.584,50.544-15.312  C139.36,355.832,139.36,320.376,117.488,298.512z"/>
<circle style="fill:#B5B5B5;" cx="208" cy="392" r="56"/>
<path style="fill:#9B9B9B;" d="M208,336c-4.12,0-8.128,0.472-12,1.32c25.152,5.496,44,27.872,44,54.68s-18.848,49.184-44,54.68  c3.872,0.848,7.88,1.32,12,1.32c30.928,0,56-25.072,56-56S238.928,336,208,336z"/>
<ellipse style="fill:#B5B5B5;" cx="338.087" cy="338.08" rx="55.999" ry="55.999"/>
<path style="fill:#9B9B9B;" d="M377.704,298.512c-14.28-14.28-34.352-19.176-52.648-14.8c9.72,2.32,18.96,7.216,26.544,14.8  c21.872,21.872,21.872,57.328,0,79.192c-7.584,7.584-16.824,12.48-26.544,14.8c18.304,4.376,38.368-0.52,52.648-14.8  C399.576,355.832,399.576,320.376,377.704,298.512z"/>
<circle style="fill:#B5B5B5;" cx="392" cy="208" r="56"/>
<path style="fill:#9B9B9B;" d="M392,152c-4.12,0-8.128,0.472-12,1.32c25.152,5.496,44,27.872,44,54.68s-18.848,49.184-44,54.68  c3.872,0.848,7.88,1.32,12,1.32c30.928,0,56-25.072,56-56S422.928,152,392,152z"/>
<ellipse style="fill:#B5B5B5;" cx="338.087" cy="77.912" rx="55.999" ry="55.999"/>
<path style="fill:#9B9B9B;" d="M377.704,38.296c-14.28-14.28-34.352-19.176-52.648-14.8c9.72,2.32,18.96,7.216,26.544,14.8  c21.872,21.872,21.872,57.328,0,79.192c-7.584,7.584-16.824,12.48-26.544,14.8c18.304,4.376,38.368-0.52,52.648-14.8  C399.576,95.624,399.576,60.16,377.704,38.296z"/>
<g>
	<path style="fill:#3F3A34;" d="M77.888,402.08c-16.384,0-32.776-6.24-45.256-18.712c-24.952-24.952-24.952-65.56,0-90.512l0,0   c24.952-24.952,65.552-24.96,90.512,0c24.952,24.952,24.952,65.56,0,90.512C110.672,395.84,94.28,402.08,77.888,402.08z    M43.952,304.168c-18.712,18.712-18.712,49.168,0,67.888c18.72,18.72,49.168,18.704,67.888,0c18.712-18.712,18.712-49.168,0-67.888   C93.112,285.44,62.664,285.456,43.952,304.168L43.952,304.168z"/>
	<path style="fill:#3F3A34;" d="M208,456c-35.288,0-64-28.712-64-64s28.712-64,64-64s64,28.712,64,64S243.288,456,208,456z M208,344   c-26.472,0-48,21.528-48,48s21.528,48,48,48s48-21.528,48-48S234.472,344,208,344z"/>
	<path style="fill:#3F3A34;" d="M338.104,402.08c-16.384,0-32.776-6.24-45.256-18.712l0,0c-24.952-24.952-24.952-65.56,0-90.512   s65.552-24.96,90.512,0c24.952,24.952,24.952,65.56,0,90.512C370.888,395.84,354.496,402.08,338.104,402.08z M304.168,372.048   c18.712,18.704,49.168,18.712,67.888,0c18.712-18.712,18.712-49.168,0-67.888c-18.728-18.72-49.176-18.704-67.888,0   C285.456,322.88,285.456,353.336,304.168,372.048L304.168,372.048z"/>
	<path style="fill:#3F3A34;" d="M392,272c-35.288,0-64-28.712-64-64s28.712-64,64-64s64,28.712,64,64S427.288,272,392,272z M392,160   c-26.472,0-48,21.528-48,48s21.528,48,48,48s48-21.528,48-48S418.472,160,392,160z"/>
	<path style="fill:#3F3A34;" d="M338.104,141.864c-16.384,0-32.776-6.24-45.256-18.712c-24.952-24.952-24.952-65.56,0-90.512   s65.552-24.96,90.512,0c24.952,24.952,24.952,65.56,0,90.512l0,0C370.888,135.624,354.496,141.864,338.104,141.864z    M338.112,29.912c-12.296,0-24.584,4.68-33.944,14.032c-18.712,18.712-18.712,49.168,0,67.888c18.72,18.712,49.168,18.696,67.888,0   c18.712-18.712,18.712-49.168,0-67.888C362.688,34.592,350.4,29.912,338.112,29.912z"/>
</g>
<path style="fill:#FFCB57;" d="M208,8c-8.264,0-16.384,0.56-24.384,1.536c27.312,48.752,20.352,111.52-21.104,152.976  S58.28,210.928,9.536,183.616C8.56,191.616,8,199.736,8,208c0,110.456,89.544,200,200,200s200-89.544,200-200S318.456,8,208,8z   M208,376c-85.632,0-156.152-64.112-166.536-146.928c50.424,9.752,104.632-4.888,143.672-43.936s53.688-93.256,43.936-143.672  C311.888,51.848,376,122.368,376,208C376,300.784,300.784,376,208,376z"/>
<path style="fill:#F2BE55;" d="M208,8c-4.024,0-8.024,0.144-11.984,0.392C300.872,14.608,384,101.584,384,208  c0,106.424-83.136,193.4-188,199.608c3.976,0.24,7.968,0.392,12,0.392c110.456,0,200-89.544,200-200S318.456,8,208,8z"/>
<path style="fill:#A8A8A8;" d="M132.208,220.208c19.256-7.808,37.312-19.456,52.928-35.072s27.256-33.68,35.072-52.928  L195.04,107.04c-5.736,20.304-16.536,39.48-32.528,55.472s-35.168,26.792-55.472,32.528L132.208,220.208z"/>
<g>
	<path style="fill:#3F3A34;" d="M208,416C93.312,416,0,322.688,0,208c0-8.152,0.536-16.672,1.592-25.344l1.44-11.848l10.408,5.832   c46.64,26.128,105.624,18,143.408-19.784s45.92-96.752,19.784-143.408L170.8,3.04l11.848-1.44C191.328,0.536,199.848,0,208,0   c114.688,0,208,93.312,208,208S322.688,416,208,416z M16.392,196.016C16.128,200.064,16,204.04,16,208   c0,105.864,86.136,192,192,192s192-86.136,192-192S313.864,16,208,16c-3.96,0-7.936,0.128-11.984,0.392   c22.816,50.928,12.12,111.808-27.848,151.768C128.2,208.128,67.32,218.824,16.392,196.016z M208,384   c-88.456,0-163.464-66.176-174.48-153.928l-1.376-10.944l10.832,2.096c49.712,9.608,100.744-5.992,136.496-41.736   c35.752-35.752,51.352-86.784,41.736-136.496l-2.096-10.832l10.944,1.376C317.824,44.536,384,119.544,384,208   C384,305.048,305.048,384,208,384z M51.096,238.704C65.56,313.128,131.2,368,208,368c88.224,0,160-71.776,160-160   c0-76.8-54.872-142.44-129.296-156.904c6.424,51.336-11.064,102.848-47.912,139.696S102.448,245.136,51.096,238.704z"/>
	
		<rect x="164.004" y="155.031" transform="matrix(-0.7071 0.7071 -0.7071 -0.7071 415.2529 172.0023)" style="fill:#3F3A34;" width="16" height="33.944"/>
	
		<rect x="188.004" y="131.034" transform="matrix(-0.7071 0.7071 -0.7071 -0.7071 439.2552 114.0666)" style="fill:#3F3A34;" width="16" height="33.944"/>
	
		<rect x="140.004" y="179.052" transform="matrix(-0.7071 0.7071 -0.7071 -0.7071 391.2676 229.9789)" style="fill:#3F3A34;" width="16" height="33.944"/>
	
		<rect x="199.991" y="97.363" transform="matrix(-0.7071 0.7071 -0.7071 -0.7071 439.9086 57.7653)" style="fill:#3F3A34;" width="16" height="45.256"/>
	
		<rect x="111.991" y="185.349" transform="matrix(-0.7071 0.7071 -0.7071 -0.7071 351.8984 270.1915)" style="fill:#3F3A34;" width="16" height="45.256"/>
</g>
<g>
</g>
<g>
</g>
<g>
</g>
<g>
</g>
<g>
</g>
<g>
</g>
<g>
</g>
<g>
</g>
<g>
</g>
<g>
</g>
<g>
</g>
<g>
</g>
<g>
</g>
<g>
</g>
<g>
</g>
</svg>
