<?xml version="1.0" encoding="iso-8859-1"?>
<!-- Generator: Adobe Illustrator 19.0.0, SVG Export Plug-In . SVG Version: 6.00 Build 0)  -->
<svg xmlns="http://www.w3.org/2000/svg" xmlns:xlink="http://www.w3.org/1999/xlink" version="1.1" id="Layer_1" x="0px" y="0px" viewBox="0 0 496 496" style="enable-background:new 0 0 496 496;" xml:space="preserve">
<path style="fill:#FFCB57;" d="M472,116c0,0-40,56-120,64c-46.632,4.664-136.76,12.048-203.832,17.392  c-28.08,2.24-52.288,17.064-67.456,38.608H40v32h26.416C64.896,274.624,64,281.48,64,288.552l0,0  C64,339.056,104.944,380,155.448,380H296c39.768,0,72-32.232,72-72c0-18.6-7.112-35.488-18.688-48.264  c0.88,0.088,1.832,0.176,2.688,0.264c80,8,120,64,120,64h16V116H472z M288,348H149.44C119.928,348,96,324.072,96,294.56  c0-9.704,2.584-18.752,7.056-26.56H288c22.088,0,40,17.912,40,40S310.088,348,288,348z"/>
<rect x="8" y="220" style="fill:#A8A8A8;" width="32" height="64"/>
<path style="fill:#F2BE55;" d="M464,125.392v189.216c5.304,5.648,8,9.392,8,9.392h16V116h-16C472,116,469.304,119.744,464,125.392z"/>
<g>
	<path style="fill:#3F3A34;" d="M48,292H0v-80h48V292z M16,276h16v-48H16V276z"/>
	
		<rect x="233.186" y="181.128" transform="matrix(-0.9966 0.082 -0.082 -0.9966 512.7857 357.1946)" style="fill:#3F3A34;" width="31.743" height="15.999"/>
	
		<rect x="169.283" y="186.386" transform="matrix(-0.9968 0.0801 -0.0801 -0.9968 385.3729 373.3133)" style="fill:#3F3A34;" width="31.832" height="16"/>
</g>
<rect x="136" y="180" style="fill:#FFCB57;" width="32" height="160"/>
<g>
	<rect x="152" y="180" style="fill:#F2BE55;" width="16" height="56"/>
	<rect x="152" y="268" style="fill:#F2BE55;" width="16" height="80"/>
</g>
<g>
	<polygon style="fill:#3F3A34;" points="176,236 160,236 160,188 144,188 144,236 128,236 128,172 176,172  "/>
	<rect x="128" y="140" style="fill:#3F3A34;" width="48" height="16"/>
	<rect x="144" y="148" style="fill:#3F3A34;" width="16" height="32"/>
</g>
<rect x="200" y="180" style="fill:#FFCB57;" width="32" height="160"/>
<g>
	<rect x="216" y="180" style="fill:#F2BE55;" width="16" height="56"/>
	<rect x="216" y="268" style="fill:#F2BE55;" width="16" height="80"/>
</g>
<g>
	<polygon style="fill:#3F3A34;" points="240,236 224,236 224,188 208,188 208,236 192,236 192,172 240,172  "/>
	<rect x="192" y="140" style="fill:#3F3A34;" width="48" height="16"/>
	<rect x="208" y="148" style="fill:#3F3A34;" width="16" height="32"/>
</g>
<rect x="264" y="180" style="fill:#FFCB57;" width="32" height="160"/>
<g>
	<rect x="280" y="180" style="fill:#F2BE55;" width="16" height="56"/>
	<rect x="280" y="268" style="fill:#F2BE55;" width="16" height="80"/>
</g>
<g>
	<polygon style="fill:#3F3A34;" points="304,236 288,236 288,188 272,188 272,236 256,236 256,172 304,172  "/>
	<rect x="256" y="140" style="fill:#3F3A34;" width="48" height="16"/>
	<rect x="272" y="148" style="fill:#3F3A34;" width="16" height="32"/>
	<path style="fill:#3F3A34;" d="M87.736,239.776l-12.984-9.36c14.768-20.472,36.472-34.448,61.112-39.368l3.144,15.688   C118.328,210.856,100.12,222.592,87.736,239.776z"/>
	<path style="fill:#3F3A34;" d="M296,388H155.456C100.616,388,56,343.384,56,288.552c0-7.824,0.912-15.608,2.712-23.136   c0.432-1.768,0.888-3.504,1.4-5.216l15.344,4.528c-0.432,1.456-0.832,2.928-1.176,4.416c-1.512,6.304-2.28,12.84-2.28,19.408   C72,334.568,109.44,372,155.456,372H296c35.288,0,64-28.712,64-64s-28.712-64-64-64H40v-16h256c44.112,0,80,35.888,80,80   S340.112,388,296,388z"/>
	<path style="fill:#3F3A34;" d="M288,356H149.448C115.56,356,88,328.44,88,294.56c0-6.328,0.968-12.592,2.848-18.56H40v-16h248   c26.472,0,48,21.528,48,48S314.472,356,288,356z M107.936,276c-2.584,5.8-3.936,12.128-3.936,18.56   c0,25.056,20.392,45.44,45.448,45.44H288c17.648,0,32-14.352,32-32s-14.352-32-32-32H107.936z"/>
	<path style="fill:#3F3A34;" d="M496,332h-28.096l-2.408-3.336C465.12,328.136,426.4,275.48,351.2,267.96l1.592-15.92   c72.128,7.216,112.792,51.256,123.128,63.96H480V124h-4.08c-10.336,12.704-51,56.744-123.128,63.96   c-14.648,1.464-33.568,3.192-54.728,5.048l-1.392-15.936c21.08-1.84,39.936-3.576,54.52-5.032   c75.192-7.52,113.912-60.168,114.296-60.704l2.392-3.328L496,108V332z"/>
	<rect x="128" y="268" style="fill:#3F3A34;" width="16" height="80"/>
	<rect x="160" y="268" style="fill:#3F3A34;" width="16" height="80"/>
	<rect x="192" y="268" style="fill:#3F3A34;" width="16" height="80"/>
	<rect x="224" y="268" style="fill:#3F3A34;" width="16" height="80"/>
	<rect x="256" y="268" style="fill:#3F3A34;" width="16" height="80"/>
	<rect x="288" y="268" style="fill:#3F3A34;" width="16" height="80"/>
</g>
<g>
</g>
<g>
</g>
<g>
</g>
<g>
</g>
<g>
</g>
<g>
</g>
<g>
</g>
<g>
</g>
<g>
</g>
<g>
</g>
<g>
</g>
<g>
</g>
<g>
</g>
<g>
</g>
<g>
</g>
</svg>
