<?xml version="1.0" encoding="iso-8859-1"?>
<!-- Generator: Adobe Illustrator 19.0.0, SVG Export Plug-In . SVG Version: 6.00 Build 0)  -->
<svg xmlns="http://www.w3.org/2000/svg" xmlns:xlink="http://www.w3.org/1999/xlink" version="1.1" id="Layer_1" x="0px" y="0px" viewBox="0 0 496 496" style="enable-background:new 0 0 496 496;" xml:space="preserve">
<path style="fill:#FF6E6E;" d="M248,488c88,0,104-32,104-64s-24-40-16-64c0,0-32,8-32-40s32-40,32-40c-16-32,0-40,0-72s-16-56-88-56  s-88,24-88,56s16,40,0,72c0,0,32-8,32,40s-32,40-32,40c8,24-16,32-16,64S160,488,248,488z"/>
<path style="fill:#E56565;" d="M336,360c0,0-32,8-32-40s32-40,32-40c-16-32,0-40,0-72s-16-56-88-56c-4.2,0-8.176,0.096-12,0.256  c61.776,2.592,76,25.608,76,55.744c0,32-16,40,0,72c0,0-32-8-32,40s32,40,32,40c-8,24,16,32,16,64c0,30.472-14.656,60.872-92,63.72  c3.888,0.144,7.792,0.28,12,0.28c88,0,104-32,104-64S328,384,336,360z"/>
<path style="fill:#FFCB57;" d="M232,488c0,0,0-24,0-40c0-21.864-24-56-24-56l8-8c0,0,16,8,32,8s32-8,32-8l8,8c0,0-24,34.136-24,56  c0,16,0,40,0,40H232z"/>
<g>
	<path style="fill:#3F3A34;" d="M248,496c-75.368,0-112-23.552-112-72c0-17.36,6.28-28.624,11.328-37.672   c5.504-9.864,8.016-14.992,5.088-23.8l-4.608-13.832l14.136,3.536c0.216,0.048,7.296,1.56,13.024-3.016   C180.872,344.488,184,334.384,184,320c0-14.496-3.168-24.64-9.168-29.328c-5.688-4.448-12.816-2.928-12.888-2.912l-16.872,4.216   l7.784-15.56c8.8-17.6,6.688-25.936,3.496-38.552C154.304,229.84,152,220.744,152,208c0-44.264,29.608-64,96-64s96,19.736,96,64   c0,12.744-2.304,21.84-4.336,29.872c-3.192,12.616-5.304,20.952,3.496,38.552l7.784,15.56l-16.872-4.216   c-0.208-0.048-7.296-1.568-13.024,3.016C315.128,295.512,312,305.616,312,320c0,14.496,3.168,24.64,9.168,29.328   c5.688,4.448,12.816,2.936,12.888,2.912l14.136-3.536l-4.608,13.832c-2.928,8.808-0.416,13.936,5.088,23.8   C353.72,395.376,360,406.64,360,424C360,472.448,323.368,496,248,496z M169.632,368.176c0.408,10.288-4.016,18.216-8.328,25.952   c-4.576,8.2-9.304,16.68-9.304,29.872c0,26.072,10.912,56,96,56s96-29.928,96-56c0-13.192-4.728-21.672-9.304-29.872   c-4.312-7.728-8.736-15.664-8.328-25.952c-4.832-0.672-10.2-2.464-15.048-6.24C301.16,354,296,339.888,296,320   s5.16-34,15.32-41.936c4.08-3.184,8.536-4.952,12.728-5.832c-5.488-16.208-2.76-26.992,0.104-38.288   c1.896-7.472,3.848-15.2,3.848-25.944c0-24.928-9.696-48-80-48s-80,23.072-80,48c0,10.744,1.952,18.472,3.848,25.944   c2.856,11.296,5.584,22.072,0.104,38.288c4.192,0.88,8.648,2.656,12.728,5.832C194.84,286,200,300.112,200,320   s-5.16,34-15.32,41.936C179.84,365.712,174.464,367.504,169.632,368.176z"/>
	<path style="fill:#3F3A34;" d="M272,488h-16v-40c0-18.368,13.72-42.432,21.112-54.056C270.384,396.536,259.296,400,248,400   s-22.384-3.464-29.112-6.056C226.28,405.568,240,429.632,240,448v40h-16v-40c0-15.864-16.272-42.48-22.544-51.4l-3.864-5.504   l16.824-16.824l5.168,2.56C219.712,376.912,234.16,384,248,384s28.288-7.088,28.432-7.16l5.152-2.552l16.832,16.808l-3.856,5.504   C288.272,405.528,272,432.176,272,448V488z"/>
	<rect x="224" y="360" style="fill:#3F3A34;" width="16" height="24"/>
	<rect x="224" y="240" style="fill:#3F3A34;" width="16" height="104"/>
	<rect x="256" y="240" style="fill:#3F3A34;" width="16" height="144"/>
</g>
<polygon style="fill:#FFCB57;" points="272,240 224,240 232,8 264,8 "/>
<path style="fill:#3F3A34;" d="M280.28,248h-64.56l8.552-248h47.456L280.28,248z M232.28,232h31.44l-7.448-216h-16.544L232.28,232z"/>
<rect x="224" y="8" style="fill:#FFCB57;" width="48" height="32"/>
<g>
	<path style="fill:#3F3A34;" d="M280,48h-64V0h64V48z M232,32h32V16h-32V32z"/>
	<rect x="264" y="56" style="fill:#3F3A34;" width="32" height="16"/>
	<rect x="200" y="72" style="fill:#3F3A34;" width="32" height="16"/>
</g>
<g>
</g>
<g>
</g>
<g>
</g>
<g>
</g>
<g>
</g>
<g>
</g>
<g>
</g>
<g>
</g>
<g>
</g>
<g>
</g>
<g>
</g>
<g>
</g>
<g>
</g>
<g>
</g>
<g>
</g>
</svg>
