<?xml version="1.0" encoding="iso-8859-1"?>
<!-- Generator: Adobe Illustrator 19.0.0, SVG Export Plug-In . SVG Version: 6.00 Build 0)  -->
<svg xmlns="http://www.w3.org/2000/svg" xmlns:xlink="http://www.w3.org/1999/xlink" version="1.1" id="Layer_1" x="0px" y="0px" viewBox="0 0 496 496" style="enable-background:new 0 0 496 496;" xml:space="preserve">
<rect x="8" y="136" style="fill:#EFE7E4;" width="480" height="48"/>
<rect x="376" y="136" style="fill:#D8D1D0;" width="112" height="48"/>
<path style="fill:#3F3A34;" d="M496,192H0v-64h496V192z M16,176h464v-32H16V176z"/>
<circle style="fill:#FFCB57;" cx="32" cy="32" r="24"/>
<path style="fill:#F2BE55;" d="M32,8c-2.824,0-5.488,0.576-8,1.472C33.304,12.776,40,21.568,40,32s-6.696,19.224-16,22.528  C26.512,55.424,29.176,56,32,56c13.256,0,24-10.744,24-24S45.256,8,32,8z"/>
<circle style="fill:#FFCB57;" cx="32" cy="96" r="24"/>
<path style="fill:#F2BE55;" d="M32,72c-2.824,0-5.488,0.576-8,1.472C33.304,76.776,40,85.568,40,96s-6.696,19.224-16,22.528  c2.512,0.896,5.176,1.472,8,1.472c13.256,0,24-10.744,24-24S45.256,72,32,72z"/>
<g>
	<path style="fill:#3F3A34;" d="M32,64C14.352,64,0,49.648,0,32S14.352,0,32,0s32,14.352,32,32S49.648,64,32,64z M32,16   c-8.824,0-16,7.176-16,16s7.176,16,16,16s16-7.176,16-16S40.824,16,32,16z"/>
	<path style="fill:#3F3A34;" d="M32,128c-17.648,0-32-14.352-32-32s14.352-32,32-32s32,14.352,32,32S49.648,128,32,128z M32,80   c-8.824,0-16,7.176-16,16s7.176,16,16,16s16-7.176,16-16S40.824,80,32,80z"/>
	<rect x="56" y="24" style="fill:#3F3A34;" width="440" height="16"/>
	<rect x="56" y="88" style="fill:#3F3A34;" width="440" height="16"/>
	<rect x="360" y="152" style="fill:#3F3A34;" width="16" height="16"/>
</g>
<rect x="8" y="440" style="fill:#EFE7E4;" width="480" height="48"/>
<rect x="376" y="440" style="fill:#D8D1D0;" width="112" height="48"/>
<path style="fill:#3F3A34;" d="M496,496H0v-64h496V496z M16,480h464v-32H16V480z"/>
<rect x="24" y="184" style="fill:#66ADDD;" width="448" height="256"/>
<g>
	<rect x="424" y="184" style="fill:#5B9DC1;" width="48" height="256"/>
	<rect x="272" y="184" style="fill:#5B9DC1;" width="24" height="256"/>
</g>
<g>
	<path style="fill:#3F3A34;" d="M480,448H16V176h464V448z M32,432h432V192H32V432z"/>
	<rect x="240" y="152" style="fill:#3F3A34;" width="16" height="16"/>
	<rect x="120" y="152" style="fill:#3F3A34;" width="16" height="16"/>
	<rect x="360" y="456" style="fill:#3F3A34;" width="16" height="16"/>
	<rect x="240" y="456" style="fill:#3F3A34;" width="16" height="16"/>
	<rect x="120" y="456" style="fill:#3F3A34;" width="16" height="16"/>
	
		<rect x="101.544" y="188.751" transform="matrix(-0.351 0.9364 -0.9364 -0.351 339.8735 157.9341)" style="fill:#3F3A34;" width="27.321" height="16"/>
	
		<rect x="-50.657" y="324.271" transform="matrix(-0.3514 0.9362 -0.9362 -0.3514 398.1046 388.7444)" style="fill:#3F3A34;" width="230.107" height="16"/>
	
		<rect x="180.01" y="173.844" transform="matrix(-0.9265 0.3764 -0.3764 -0.9265 479.6301 530.3109)" style="fill:#3F3A34;" width="16.001" height="276.331"/>
	
		<rect x="415.983" y="175.297" transform="matrix(-0.9363 0.3511 -0.3511 -0.9363 930.524 455.293)" style="fill:#3F3A34;" width="15.999" height="273.43"/>
	
		<rect x="169.845" y="304.026" transform="matrix(-0.3761 0.9266 -0.9266 -0.3761 712.9651 143.983)" style="fill:#3F3A34;" width="276.325" height="16"/>
	
		<rect x="287.27" y="303.995" transform="matrix(-0.3514 0.9362 -0.9362 -0.3514 865.0751 24.6866)" style="fill:#3F3A34;" width="273.433" height="16"/>
	
		<rect x="300.014" y="173.836" transform="matrix(-0.9265 0.3764 -0.3764 -0.9265 710.8104 485.1278)" style="fill:#3F3A34;" width="16.001" height="276.331"/>
	
		<rect x="63.998" y="175.308" transform="matrix(-0.9363 0.3511 -0.3511 -0.9363 248.9666 578.9012)" style="fill:#3F3A34;" width="15.999" height="273.43"/>
	
		<rect x="49.841" y="303.994" transform="matrix(-0.3761 0.9266 -0.9266 -0.3761 547.7988 255.1325)" style="fill:#3F3A34;" width="276.325" height="16"/>
</g>
<g>
</g>
<g>
</g>
<g>
</g>
<g>
</g>
<g>
</g>
<g>
</g>
<g>
</g>
<g>
</g>
<g>
</g>
<g>
</g>
<g>
</g>
<g>
</g>
<g>
</g>
<g>
</g>
<g>
</g>
</svg>
