<?xml version="1.0" encoding="iso-8859-1"?>
<!-- Generator: Adobe Illustrator 19.0.0, SVG Export Plug-In . SVG Version: 6.00 Build 0)  -->
<svg xmlns="http://www.w3.org/2000/svg" xmlns:xlink="http://www.w3.org/1999/xlink" version="1.1" id="Layer_1" x="0px" y="0px" viewBox="0 0 499.272 499.272" style="enable-background:new 0 0 499.272 499.272;" xml:space="preserve">
<path style="fill:#FFCB57;" d="M473.636,187.272c0,0-8,72-88,80s-192,8-192,8l0.272-0.416  c57.976-4.248,103.728-52.52,103.728-111.584c0-61.856-50.144-112-112-112h-3.216c-10.304,0-20.344,1.072-30.16,2.8l21.856-18.216  l-10.36-12.44l-10.12-12.144l-50.912,42.424c-12.392,10.328-22.352,22.896-29.848,36.76c-38.6,31.688-63.24,79.76-63.24,133.6l0,0  c0,91.416,71.192,167.032,162.448,172.48c82.848,4.944,174.256,10.808,213.552,14.736c80,8,88,80,88,80h16v-152v-32v-120H473.636z   M182.428,83.272h3.208c44.112,0,80,35.888,80,80s-35.888,80-80,80h-2.696c-51.448,0-93.304-41.856-93.304-93.312  c0-13.448,2.864-26.496,8.24-38.408C121.444,93.8,150.732,83.272,182.428,83.272z"/>
<path style="fill:#3F3A34;" d="M185.636,251.272h-2.696c-55.856,0-101.304-45.448-101.304-101.312  c0-14.512,3.008-28.544,8.952-41.696l0.84-1.864l1.64-1.232c25.952-19.56,56.856-29.896,89.36-29.896h3.208c48.52,0,88,39.48,88,88  S234.156,251.272,185.636,251.272z M104.356,116.712c-4.464,10.528-6.72,21.704-6.72,33.248c0,47.04,38.264,85.312,85.304,85.312  h2.696c39.696,0,72-32.304,72-72s-32.304-72-72-72h-3.208C154.116,91.272,127.164,100.064,104.356,116.712z"/>
<path style="fill:#F2BE55;" d="M457.636,227.136v224.272c13.68,20.016,16,39.864,16,39.864h16v-152v-32v-120h-16  C473.636,187.272,471.316,207.12,457.636,227.136z"/>
<path style="fill:#3F3A34;" d="M497.636,499.272h-31.16l-0.792-7.12c-0.312-2.656-8.496-65.688-80.848-72.92  c-32.144-3.216-105.872-8.304-213.232-14.712C76.3,398.832,1.636,319.568,1.636,224.064c0-55.4,25.04-105.056,64.408-138.248  c7.92-14.432,18.56-27.432,31.56-38.264L154.66,0l30.728,36.88l-7.744,6.456c1.592-0.048,3.176-0.064,4.784-0.064h3.208  c66.168,0,120,53.832,120,120c0,43.904-23.696,82.376-58.984,103.304c39.504-0.872,94-2.84,138.184-7.264  c72.72-7.272,80.544-70.248,80.848-72.92l0.792-7.12h31.16V499.272z M480.212,483.272h1.424v-288h-1.424  c-4.672,19.528-23.784,72.96-93.776,79.96c-79.48,7.944-191.672,8.04-192.8,8.04v-0.264c-2.648,0.176-5.312,0.264-8,0.264h-2.688  c-73.512,0-133.312-59.8-133.312-133.312c0-9.168,0.936-18.208,2.744-27.008c-21.76,27.936-34.744,63.032-34.744,101.112  c0,87.048,68.048,159.304,154.928,164.488c109.104,6.512,181.056,11.48,213.872,14.76  C456.428,410.312,475.54,463.744,480.212,483.272z M78.692,96.104c-8.488,16.432-13.056,34.84-13.056,53.856  c0,64.688,52.624,117.312,117.312,117.312h2.688c57.344,0,104-46.656,104-104s-46.656-104-104-104h-3.208  c-9,0-17.832,0.728-26.448,2.12l-27.648,23.04c-19.512,16.248-30.696,40.136-30.696,65.528c0,47.04,38.264,85.312,85.304,85.312  h2.696c39.696,0,72-32.304,72-72h16c0,48.52-39.48,88-88,88h-2.696c-55.856,0-101.304-45.448-101.304-101.312  c0-29.936,13.088-58.104,35.936-77.384C103.492,78.616,90.436,86.568,78.692,96.104z M152.612,22.544L109.06,58.832  c12.624-5.624,26.008-9.848,39.952-12.464l13.84-11.528L152.612,22.544z"/>
<path style="fill:#FFCB57;" d="M297.636,163.272L297.636,163.272c0,61.856-50.144,112-112,112h-2.688  c-69.208,0-125.312-56.104-125.312-125.312l0,0c0-37.192,16.52-72.456,45.088-96.264l50.912-42.424l10.12,12.152l10.36,12.44  l-50.912,42.432c-21.336,17.768-33.568,43.888-33.568,71.664c0,51.456,41.856,93.312,93.304,93.312h2.696c44.112,0,80-35.888,80-80  H297.636z"/>
<g>
	<path style="fill:#3F3A34;" d="M185.636,283.272h-2.688c-73.512,0-133.312-59.8-133.312-133.312   c0-39.68,17.488-77.008,47.968-102.408L154.66,0l30.728,36.88l-57.056,47.552c-19.512,16.248-30.696,40.136-30.696,65.528   c0,47.04,38.264,85.312,85.304,85.312h2.696c39.696,0,72-32.304,72-72h16c0,48.52-39.48,88-88,88h-2.696   c-55.856,0-101.304-45.448-101.304-101.312c0-30.16,13.288-58.52,36.448-77.824l44.768-37.304l-10.24-12.296L107.844,59.84   C81.02,82.2,65.636,115.048,65.636,149.96c0,64.688,52.624,117.312,117.312,117.312h2.688c57.344,0,104-46.656,104-104h16   C305.636,229.44,251.804,283.272,185.636,283.272z"/>
	
		<rect x="125.634" y="30.302" transform="matrix(-0.7071 0.7071 -0.7071 -0.7071 261.5553 -13.7917)" style="fill:#3F3A34;" width="16" height="33.944"/>
	<path style="fill:#3F3A34;" d="M135.084,365c-60.68-20.4-101.448-77.04-101.448-140.936c0-1.704,0.024-3.408,0.08-5.112   l15.992,0.544c-0.048,1.52-0.072,3.04-0.072,4.568c0,57.016,36.392,107.568,90.552,125.776L135.084,365z"/>
	<path style="fill:#3F3A34;" d="M173.508,372.576c-6.68-0.392-13.512-1.36-21.512-3.024l3.272-15.664   c7.208,1.504,13.312,2.368,19.192,2.72L173.508,372.576z"/>
</g>
<g>
</g>
<g>
</g>
<g>
</g>
<g>
</g>
<g>
</g>
<g>
</g>
<g>
</g>
<g>
</g>
<g>
</g>
<g>
</g>
<g>
</g>
<g>
</g>
<g>
</g>
<g>
</g>
<g>
</g>
</svg>
