<?xml version="1.0" encoding="iso-8859-1"?>
<!-- Generator: Adobe Illustrator 19.0.0, SVG Export Plug-In . SVG Version: 6.00 Build 0)  -->
<svg xmlns="http://www.w3.org/2000/svg" xmlns:xlink="http://www.w3.org/1999/xlink" version="1.1" id="Layer_1" x="0px" y="0px" viewBox="0 0 496 496" style="enable-background:new 0 0 496 496;" xml:space="preserve">
<polygon style="fill:#FFCB57;" points="200,352 56,352 40,192 216,192 "/>
<polygon style="fill:#F2BE55;" points="192,192 176,352 200,352 216,192 "/>
<polygon style="fill:#EFE7E4;" points="52.8,320 56,352 200,352 203.2,320 "/>
<polygon style="fill:#D8D1D0;" points="203.2,320 179.2,320 176,352 200,352 "/>
<polygon style="fill:#3F3A34;" points="207.24,360 48.76,360 32.04,192.8 47.96,191.2 63.24,344 192.76,344 208.04,191.2   223.96,192.8 "/>
<path style="fill:#EFE7E4;" d="M216,128H40c-8.84,0-16,7.16-16,16v16h208v-16C232,135.16,224.84,128,216,128z"/>
<g>
	<path style="fill:#D8D1D0;" d="M216,128h-24c8.84,0,16,7.16,16,16v16h24v-16C232,135.16,224.84,128,216,128z"/>
	<rect x="72" y="128" style="fill:#D8D1D0;" width="16" height="32"/>
</g>
<path style="fill:#3F3A34;" d="M240,160h-16v-16c0-4.416-3.584-8-8-8H40c-4.416,0-8,3.584-8,8v16H16v-16c0-13.232,10.768-24,24-24  h176c13.232,0,24,10.768,24,24V160z"/>
<path style="fill:#A8A8A8;" d="M16,160c-4.416,0-8,3.584-8,8v24v10.056C8,209.752,14.248,216,21.944,216l0,0  c6,0,11.336-3.84,13.232-9.536l1.88-5.64c1.76-5.272,6.688-8.824,12.24-8.824h45.4c5.552,0,10.48,3.552,12.24,8.824l0,0  C109.96,209.888,118.448,216,128,216l0,0c9.552,0,18.04-6.112,21.056-15.176l0,0c1.76-5.272,6.688-8.824,12.24-8.824h45.4  c5.552,0,10.48,3.552,12.24,8.824l1.88,5.64c1.904,5.696,7.232,9.536,13.24,9.536l0,0c7.696,0,13.944-6.248,13.944-13.944V192v-24  c0-4.416-3.584-8-8-8H16z"/>
<g>
	<rect x="160" y="160" style="fill:#9B9B9B;" width="16" height="32"/>
	<path style="fill:#9B9B9B;" d="M240,160h-24c4.416,0,8,3.584,8,8v24v10.056c0,2.52-0.72,4.848-1.888,6.888   c2.456,4.248,6.896,7.056,11.944,7.056c7.696,0,13.944-6.248,13.944-13.944V192v-24C248,163.584,244.416,160,240,160z"/>
</g>
<g>
	<path style="fill:#3F3A34;" d="M234.056,224c-9.464,0-17.832-6.032-20.824-15.008l-1.88-5.64c-0.672-2.008-2.536-3.352-4.648-3.352   h-45.408c-2.112,0-3.976,1.344-4.64,3.344C152.528,215.704,141.016,224,128,224s-24.528-8.296-28.648-20.648   C98.68,201.344,96.816,200,94.704,200H49.296c-2.112,0-3.976,1.344-4.64,3.344l-1.888,5.648C39.776,217.968,31.408,224,21.944,224   C9.84,224,0,214.16,0,202.056V168c0-8.824,7.176-16,16-16h72v16H16v34.056c0,3.28,2.664,5.944,5.944,5.944   c2.56,0,4.832-1.632,5.648-4.072l1.88-5.64C32.312,189.744,40.28,184,49.296,184h45.408c9.016,0,16.984,5.744,19.832,14.296   c1.928,5.8,7.336,9.704,13.464,9.704s11.536-3.904,13.48-9.712c2.832-8.544,10.8-14.288,19.816-14.288h45.408   c9.016,0,16.984,5.744,19.832,14.296l1.872,5.632c0.808,2.44,3.088,4.072,5.648,4.072c3.28,0,5.944-2.664,5.944-5.944V168H104v-16   h136c8.824,0,16,7.176,16,16v34.056C256,214.16,246.16,224,234.056,224z"/>
	<polygon style="fill:#3F3A34;" points="232,376 216,376 216,318.544 240,254.544 240,184 256,184 256,257.456 232,321.456  "/>
	<polygon style="fill:#3F3A34;" points="40,376 24,376 24,321.456 0,257.456 0,184 16,184 16,254.544 40,318.544  "/>
	<rect x="120" y="216" style="fill:#3F3A34;" width="16" height="160"/>
	<rect x="32" y="312" style="fill:#3F3A34;" width="192" height="16"/>
</g>
<polygon style="fill:#FFCB57;" points="440,352 296,352 280,192 456,192 "/>
<polygon style="fill:#F2BE55;" points="432,192 416,352 440,352 456,192 "/>
<polygon style="fill:#EFE7E4;" points="292.8,320 296,352 440,352 443.2,320 "/>
<polygon style="fill:#D8D1D0;" points="443.2,320 419.2,320 416,352 440,352 "/>
<polygon style="fill:#3F3A34;" points="447.24,360 288.76,360 272.04,192.8 287.96,191.2 303.24,344 432.76,344 448.04,191.2   463.96,192.8 "/>
<path style="fill:#EFE7E4;" d="M456,128H280c-8.84,0-16,7.16-16,16v16h208v-16C472,135.16,464.84,128,456,128z"/>
<g>
	<path style="fill:#D8D1D0;" d="M456,128h-24c8.84,0,16,7.16,16,16v16h24v-16C472,135.16,464.84,128,456,128z"/>
	<rect x="312" y="128" style="fill:#D8D1D0;" width="16" height="32"/>
</g>
<path style="fill:#3F3A34;" d="M480,160h-16v-16c0-4.416-3.584-8-8-8H280c-4.416,0-8,3.584-8,8v16h-16v-16c0-13.232,10.768-24,24-24  h176c13.232,0,24,10.768,24,24V160z"/>
<path style="fill:#A8A8A8;" d="M256,160c-4.416,0-8,3.584-8,8v24v10.056c0,7.696,6.248,13.944,13.944,13.944l0,0  c6,0,11.336-3.84,13.232-9.536l1.88-5.64c1.76-5.272,6.688-8.824,12.24-8.824h45.4c5.552,0,10.48,3.552,12.24,8.824l0,0  C349.96,209.888,358.448,216,368,216l0,0c9.552,0,18.04-6.112,21.056-15.176l0,0c1.76-5.272,6.688-8.824,12.24-8.824h45.4  c5.552,0,10.48,3.552,12.24,8.824l1.88,5.64c1.904,5.696,7.232,9.536,13.24,9.536l0,0c7.696,0,13.944-6.248,13.944-13.944V192v-24  c0-4.416-3.584-8-8-8H256z"/>
<g>
	<rect x="400" y="160" style="fill:#9B9B9B;" width="16" height="32"/>
	<path style="fill:#9B9B9B;" d="M480,160h-24c4.416,0,8,3.584,8,8v24v10.056c0,2.52-0.72,4.848-1.888,6.888   c2.456,4.248,6.896,7.056,11.944,7.056c7.696,0,13.944-6.248,13.944-13.944V192v-24C488,163.584,484.416,160,480,160z"/>
</g>
<g>
	<path style="fill:#3F3A34;" d="M474.056,224c-9.464,0-17.832-6.032-20.824-15.008l-1.88-5.64c-0.672-2.008-2.536-3.352-4.648-3.352   h-45.408c-2.112,0-3.976,1.344-4.64,3.344C392.528,215.704,381.016,224,368,224s-24.528-8.296-28.648-20.648   c-0.672-2.008-2.536-3.352-4.648-3.352h-45.408c-2.112,0-3.976,1.344-4.64,3.344l-1.888,5.648   c-2.992,8.976-11.36,15.008-20.824,15.008C249.84,224,240,214.16,240,202.056V168c0-8.824,7.176-16,16-16h224   c8.824,0,16,7.176,16,16v34.056C496,214.16,486.16,224,474.056,224z M401.296,184h45.408c9.016,0,16.984,5.744,19.832,14.296   l1.872,5.632c0.808,2.44,3.088,4.072,5.648,4.072c3.28,0,5.944-2.664,5.944-5.944V168H255.984L256,202.056   c0,3.28,2.664,5.944,5.944,5.944c2.56,0,4.832-1.632,5.648-4.072l1.88-5.64c2.84-8.544,10.808-14.288,19.824-14.288h45.408   c9.016,0,16.984,5.744,19.832,14.296c1.928,5.8,7.336,9.704,13.464,9.704s11.536-3.904,13.48-9.712   C384.312,189.744,392.28,184,401.296,184z"/>
	<polygon style="fill:#3F3A34;" points="472,376 456,376 456,318.544 480,254.544 480,184 496,184 496,257.456 472,321.456  "/>
	<polygon style="fill:#3F3A34;" points="280,376 264,376 264,321.456 240,257.456 240,184 256,184 256,254.544 280,318.544  "/>
	<rect x="360" y="216" style="fill:#3F3A34;" width="16" height="160"/>
	<rect x="272" y="312" style="fill:#3F3A34;" width="120" height="16"/>
	<rect x="408" y="312" style="fill:#3F3A34;" width="56" height="16"/>
</g>
<path style="fill:#A8A8A8;" d="M304,296H192c-8.84,0-16-7.16-16-16v-16c0-8.84,7.16-16,16-16h112c8.84,0,16,7.16,16,16v16  C320,288.84,312.84,296,304,296z"/>
<g>
	<rect x="224" y="248" style="fill:#9B9B9B;" width="16" height="48"/>
	<path style="fill:#9B9B9B;" d="M304,248h-24c8.84,0,16,7.16,16,16v16c0,8.84-7.16,16-16,16h24c8.84,0,16-7.16,16-16v-16   C320,255.16,312.84,248,304,248z"/>
</g>
<path style="fill:#3F3A34;" d="M304,304H192c-13.232,0-24-10.768-24-24v-16c0-13.232,10.768-24,24-24h112c13.232,0,24,10.768,24,24  v16C328,293.232,317.232,304,304,304z M192,256c-4.416,0-8,3.584-8,8v16c0,4.416,3.584,8,8,8h112c4.416,0,8-3.584,8-8v-16  c0-4.416-3.584-8-8-8H192z"/>
<g>
</g>
<g>
</g>
<g>
</g>
<g>
</g>
<g>
</g>
<g>
</g>
<g>
</g>
<g>
</g>
<g>
</g>
<g>
</g>
<g>
</g>
<g>
</g>
<g>
</g>
<g>
</g>
<g>
</g>
</svg>
