<?xml version="1.0" encoding="iso-8859-1"?>
<!-- Generator: Adobe Illustrator 19.0.0, SVG Export Plug-In . SVG Version: 6.00 Build 0)  -->
<svg xmlns="http://www.w3.org/2000/svg" xmlns:xlink="http://www.w3.org/1999/xlink" version="1.1" id="Layer_1" x="0px" y="0px" viewBox="0 0 496 496" style="enable-background:new 0 0 496 496;" xml:space="preserve">
<path style="fill:#A8A8A8;" d="M144,488h-32V24c0-8.84,7.16-16,16-16l0,0c8.84,0,16,7.16,16,16V488z"/>
<path style="fill:#9B9B9B;" d="M128,8c-2.928,0-5.64,0.848-8,2.216c4.76,2.776,8,7.88,8,13.784v464h16V24C144,15.16,136.84,8,128,8z  "/>
<g>
	<path style="fill:#3F3A34;" d="M152,496h-48V24c0-13.232,10.768-24,24-24s24,10.768,24,24V496z M120,480h16V24c0-4.416-3.584-8-8-8   s-8,3.584-8,8V480z"/>
	<rect x="112" y="352" style="fill:#3F3A34;" width="32" height="16"/>
</g>
<path style="fill:#FFCB57;" d="M352,360H224c-8.84,0-16-7.16-16-16V24c0-8.84,7.16-16,16-16h128c8.84,0,16,7.16,16,16v320  C368,352.84,360.84,360,352,360z"/>
<path style="fill:#F2BE55;" d="M352,8h-40c8.84,0,16,7.16,16,16v320c0,8.84-7.16,16-16,16h40c8.84,0,16-7.16,16-16V24  C368,15.16,360.84,8,352,8z"/>
<path style="fill:#3F3A34;" d="M352,368H224c-13.232,0-24-10.768-24-24V24c0-13.232,10.768-24,24-24h128c13.232,0,24,10.768,24,24  v320C376,357.232,365.232,368,352,368z M224,16c-4.416,0-8,3.584-8,8v320c0,4.416,3.584,8,8,8h128c4.416,0,8-3.584,8-8V24  c0-4.416-3.584-8-8-8H224z"/>
<path style="fill:#FFCB57;" d="M336,360h-96v80c0,26.512,21.488,48,48,48l0,0c26.512,0,48-21.488,48-48V360z"/>
<path style="fill:#F2BE55;" d="M304,360h-64v24h64v56c0,20.888-13.368,38.616-32,45.208c5.008,1.776,10.384,2.792,16,2.792  c26.512,0,48-21.488,48-48v-56v-24H304z"/>
<g>
	<path style="fill:#3F3A34;" d="M288,496c-30.872,0-56-25.128-56-56v-88h112v88C344,470.872,318.872,496,288,496z M248,368v72   c0,22.056,17.944,40,40,40s40-17.944,40-40v-72H248z"/>
	<rect x="248" y="32" style="fill:#3F3A34;" width="144" height="16"/>
	<rect x="184" y="32" style="fill:#3F3A34;" width="48" height="16"/>
	<rect x="184" y="64" style="fill:#3F3A34;" width="208" height="16"/>
	<rect x="184" y="96" style="fill:#3F3A34;" width="208" height="16"/>
	<rect x="184" y="128" style="fill:#3F3A34;" width="208" height="16"/>
	<rect x="184" y="160" style="fill:#3F3A34;" width="208" height="16"/>
	<rect x="184" y="192" style="fill:#3F3A34;" width="208" height="16"/>
	<rect x="184" y="224" style="fill:#3F3A34;" width="208" height="16"/>
	<rect x="184" y="256" style="fill:#3F3A34;" width="208" height="16"/>
	<rect x="344" y="288" style="fill:#3F3A34;" width="48" height="16"/>
	<rect x="184" y="288" style="fill:#3F3A34;" width="144" height="16"/>
	<rect x="184" y="320" style="fill:#3F3A34;" width="208" height="16"/>
</g>
<g>
</g>
<g>
</g>
<g>
</g>
<g>
</g>
<g>
</g>
<g>
</g>
<g>
</g>
<g>
</g>
<g>
</g>
<g>
</g>
<g>
</g>
<g>
</g>
<g>
</g>
<g>
</g>
<g>
</g>
</svg>
