<?xml version="1.0" encoding="iso-8859-1"?>
<!-- Generator: Adobe Illustrator 19.0.0, SVG Export Plug-In . SVG Version: 6.00 Build 0)  -->
<svg xmlns="http://www.w3.org/2000/svg" xmlns:xlink="http://www.w3.org/1999/xlink" version="1.1" id="Layer_1" x="0px" y="0px" viewBox="0 0 496 496" style="enable-background:new 0 0 496 496;" xml:space="preserve">
<path style="fill:#FF6E6E;" d="M24,40h448c8.84,0,16,7.16,16,16v80H8V56C8,47.16,15.16,40,24,40z"/>
<path style="fill:#E56565;" d="M472,40h-56v96h72V56C488,47.16,480.84,40,472,40z"/>
<rect x="8" y="136" style="fill:#A8A8A8;" width="480" height="320"/>
<rect x="416" y="136" style="fill:#9B9B9B;" width="72" height="320"/>
<g>
	<rect x="24" y="456" style="fill:#6D6E71;" width="48" height="32"/>
	<rect x="424" y="456" style="fill:#6D6E71;" width="48" height="32"/>
</g>
<g>
	<path style="fill:#3F3A34;" d="M80,496H16v-48h64V496z M32,480h32v-16H32V480z"/>
	<path style="fill:#3F3A34;" d="M480,496h-64v-48h64V496z M432,480h32v-16h-32V480z"/>
	<path style="fill:#3F3A34;" d="M496,464H0V56c0-13.232,10.768-24,24-24h448c13.232,0,24,10.768,24,24V464z M16,448h464V56   c0-4.408-3.584-8-8-8H24c-4.416,0-8,3.592-8,8V448z"/>
	<path style="fill:#3F3A34;" d="M368,32h-16c0-8.824-7.176-16-16-16H160c-8.824,0-16,7.176-16,16h-16c0-17.648,14.352-32,32-32h176   C353.648,0,368,14.352,368,32z"/>
</g>
<circle style="fill:#FFCB57;" cx="72" cy="88" r="16"/>
<path style="fill:#F2BE55;" d="M72,72c-2.928,0-5.64,0.848-8,2.216c4.76,2.768,8,7.872,8,13.784c0,5.904-3.24,11.008-8,13.784  c2.36,1.368,5.072,2.216,8,2.216c8.84,0,16-7.16,16-16S80.84,72,72,72z"/>
<path style="fill:#3F3A34;" d="M72,112c-13.232,0-24-10.768-24-24s10.768-24,24-24s24,10.768,24,24S85.232,112,72,112z M72,80  c-4.416,0-8,3.592-8,8s3.584,8,8,8s8-3.592,8-8S76.416,80,72,80z"/>
<circle style="fill:#FFCB57;" cx="136" cy="88" r="16"/>
<path style="fill:#F2BE55;" d="M136,72c-2.928,0-5.64,0.848-8,2.216c4.76,2.768,8,7.872,8,13.784c0,5.904-3.24,11.008-8,13.784  c2.36,1.368,5.072,2.216,8,2.216c8.84,0,16-7.16,16-16S144.84,72,136,72z"/>
<path style="fill:#3F3A34;" d="M136,112c-13.232,0-24-10.768-24-24s10.768-24,24-24s24,10.768,24,24S149.232,112,136,112z M136,80  c-4.416,0-8,3.592-8,8s3.584,8,8,8s8-3.592,8-8S140.416,80,136,80z"/>
<circle style="fill:#FFCB57;" cx="200" cy="88" r="16"/>
<path style="fill:#F2BE55;" d="M200,72c-2.928,0-5.64,0.848-8,2.216c4.76,2.768,8,7.872,8,13.784c0,5.904-3.24,11.008-8,13.784  c2.36,1.368,5.072,2.216,8,2.216c8.84,0,16-7.16,16-16S208.84,72,200,72z"/>
<path style="fill:#3F3A34;" d="M200,112c-13.232,0-24-10.768-24-24s10.768-24,24-24s24,10.768,24,24S213.232,112,200,112z M200,80  c-4.416,0-8,3.592-8,8s3.584,8,8,8s8-3.592,8-8S204.416,80,200,80z"/>
<circle style="fill:#FFCB57;" cx="264" cy="88" r="16"/>
<path style="fill:#F2BE55;" d="M264,72c-2.928,0-5.64,0.848-8,2.216c4.76,2.768,8,7.872,8,13.784c0,5.904-3.24,11.008-8,13.784  c2.36,1.368,5.072,2.216,8,2.216c8.84,0,16-7.16,16-16S272.84,72,264,72z"/>
<path style="fill:#3F3A34;" d="M264,112c-13.232,0-24-10.768-24-24s10.768-24,24-24s24,10.768,24,24S277.232,112,264,112z M264,80  c-4.416,0-8,3.592-8,8s3.584,8,8,8s8-3.592,8-8S268.416,80,264,80z"/>
<circle style="fill:#FFCB57;" cx="328" cy="88" r="16"/>
<path style="fill:#F2BE55;" d="M328,72c-2.928,0-5.64,0.848-8,2.216c4.76,2.768,8,7.872,8,13.784c0,5.904-3.24,11.008-8,13.784  c2.36,1.368,5.072,2.216,8,2.216c8.84,0,16-7.16,16-16S336.84,72,328,72z"/>
<g>
	<path style="fill:#3F3A34;" d="M328,112c-13.232,0-24-10.768-24-24s10.768-24,24-24s24,10.768,24,24S341.232,112,328,112z M328,80   c-4.416,0-8,3.592-8,8s3.584,8,8,8s8-3.592,8-8S332.416,80,328,80z"/>
	<rect x="96" y="128" style="fill:#3F3A34;" width="392" height="16"/>
	<rect x="8" y="128" style="fill:#3F3A34;" width="72" height="16"/>
	<rect x="368" y="80" style="fill:#3F3A34;" width="16" height="16"/>
	<rect x="400" y="80" style="fill:#3F3A34;" width="16" height="16"/>
	<rect x="432" y="80" style="fill:#3F3A34;" width="16" height="16"/>
	<rect x="32" y="416" style="fill:#3F3A34;" width="16" height="16"/>
	<rect x="64" y="416" style="fill:#3F3A34;" width="16" height="16"/>
	<rect x="96" y="416" style="fill:#3F3A34;" width="16" height="16"/>
	<rect x="128" y="416" style="fill:#3F3A34;" width="16" height="16"/>
	<rect x="160" y="416" style="fill:#3F3A34;" width="16" height="16"/>
	<rect x="192" y="416" style="fill:#3F3A34;" width="16" height="16"/>
	<rect x="224" y="416" style="fill:#3F3A34;" width="16" height="16"/>
	<rect x="256" y="416" style="fill:#3F3A34;" width="16" height="16"/>
	<rect x="288" y="416" style="fill:#3F3A34;" width="16" height="16"/>
	<rect x="320" y="416" style="fill:#3F3A34;" width="16" height="16"/>
	<rect x="352" y="416" style="fill:#3F3A34;" width="16" height="16"/>
	<rect x="384" y="416" style="fill:#3F3A34;" width="16" height="16"/>
	<rect x="416" y="416" style="fill:#3F3A34;" width="16" height="16"/>
	<rect x="448" y="416" style="fill:#3F3A34;" width="16" height="16"/>
	<rect x="48" y="384" style="fill:#3F3A34;" width="16" height="16"/>
	<rect x="80" y="384" style="fill:#3F3A34;" width="16" height="16"/>
	<rect x="112" y="384" style="fill:#3F3A34;" width="16" height="16"/>
	<rect x="144" y="384" style="fill:#3F3A34;" width="16" height="16"/>
	<rect x="176" y="384" style="fill:#3F3A34;" width="16" height="16"/>
	<rect x="208" y="384" style="fill:#3F3A34;" width="16" height="16"/>
	<rect x="240" y="384" style="fill:#3F3A34;" width="16" height="16"/>
	<rect x="272" y="384" style="fill:#3F3A34;" width="16" height="16"/>
	<rect x="304" y="384" style="fill:#3F3A34;" width="16" height="16"/>
	<rect x="336" y="384" style="fill:#3F3A34;" width="16" height="16"/>
	<rect x="368" y="384" style="fill:#3F3A34;" width="16" height="16"/>
	<rect x="400" y="384" style="fill:#3F3A34;" width="16" height="16"/>
	<rect x="432" y="384" style="fill:#3F3A34;" width="16" height="16"/>
	<rect x="464" y="384" style="fill:#3F3A34;" width="16" height="16"/>
	<rect x="16" y="384" style="fill:#3F3A34;" width="16" height="16"/>
	<rect x="32" y="352" style="fill:#3F3A34;" width="16" height="16"/>
	<rect x="64" y="352" style="fill:#3F3A34;" width="16" height="16"/>
	<rect x="96" y="352" style="fill:#3F3A34;" width="16" height="16"/>
	<rect x="128" y="352" style="fill:#3F3A34;" width="16" height="16"/>
	<rect x="160" y="352" style="fill:#3F3A34;" width="16" height="16"/>
	<rect x="192" y="352" style="fill:#3F3A34;" width="16" height="16"/>
	<rect x="224" y="352" style="fill:#3F3A34;" width="16" height="16"/>
	<rect x="256" y="352" style="fill:#3F3A34;" width="16" height="16"/>
	<rect x="288" y="352" style="fill:#3F3A34;" width="16" height="16"/>
	<rect x="320" y="352" style="fill:#3F3A34;" width="16" height="16"/>
	<rect x="352" y="352" style="fill:#3F3A34;" width="16" height="16"/>
	<rect x="384" y="352" style="fill:#3F3A34;" width="16" height="16"/>
	<rect x="416" y="352" style="fill:#3F3A34;" width="16" height="16"/>
	<rect x="448" y="352" style="fill:#3F3A34;" width="16" height="16"/>
	<rect x="48" y="320" style="fill:#3F3A34;" width="16" height="16"/>
	<rect x="80" y="320" style="fill:#3F3A34;" width="16" height="16"/>
	<rect x="112" y="320" style="fill:#3F3A34;" width="16" height="16"/>
	<rect x="144" y="320" style="fill:#3F3A34;" width="16" height="16"/>
	<rect x="176" y="320" style="fill:#3F3A34;" width="16" height="16"/>
	<rect x="208" y="320" style="fill:#3F3A34;" width="16" height="16"/>
	<rect x="240" y="320" style="fill:#3F3A34;" width="16" height="16"/>
	<rect x="272" y="320" style="fill:#3F3A34;" width="16" height="16"/>
	<rect x="304" y="320" style="fill:#3F3A34;" width="16" height="16"/>
	<rect x="336" y="320" style="fill:#3F3A34;" width="16" height="16"/>
	<rect x="368" y="320" style="fill:#3F3A34;" width="16" height="16"/>
	<rect x="400" y="320" style="fill:#3F3A34;" width="16" height="16"/>
	<rect x="432" y="320" style="fill:#3F3A34;" width="16" height="16"/>
	<rect x="464" y="320" style="fill:#3F3A34;" width="16" height="16"/>
	<rect x="16" y="320" style="fill:#3F3A34;" width="16" height="16"/>
	<rect x="32" y="288" style="fill:#3F3A34;" width="16" height="16"/>
	<rect x="64" y="288" style="fill:#3F3A34;" width="16" height="16"/>
	<rect x="96" y="288" style="fill:#3F3A34;" width="16" height="16"/>
	<rect x="128" y="288" style="fill:#3F3A34;" width="16" height="16"/>
	<rect x="160" y="288" style="fill:#3F3A34;" width="16" height="16"/>
	<rect x="192" y="288" style="fill:#3F3A34;" width="16" height="16"/>
	<rect x="224" y="288" style="fill:#3F3A34;" width="16" height="16"/>
	<rect x="256" y="288" style="fill:#3F3A34;" width="16" height="16"/>
	<rect x="288" y="288" style="fill:#3F3A34;" width="16" height="16"/>
	<rect x="320" y="288" style="fill:#3F3A34;" width="16" height="16"/>
	<rect x="352" y="288" style="fill:#3F3A34;" width="16" height="16"/>
	<rect x="384" y="288" style="fill:#3F3A34;" width="16" height="16"/>
	<rect x="416" y="288" style="fill:#3F3A34;" width="16" height="16"/>
	<rect x="448" y="288" style="fill:#3F3A34;" width="16" height="16"/>
	<rect x="48" y="256" style="fill:#3F3A34;" width="16" height="16"/>
	<rect x="80" y="256" style="fill:#3F3A34;" width="16" height="16"/>
	<rect x="112" y="256" style="fill:#3F3A34;" width="16" height="16"/>
	<rect x="144" y="256" style="fill:#3F3A34;" width="16" height="16"/>
	<rect x="176" y="256" style="fill:#3F3A34;" width="16" height="16"/>
	<rect x="208" y="256" style="fill:#3F3A34;" width="16" height="16"/>
	<rect x="240" y="256" style="fill:#3F3A34;" width="16" height="16"/>
	<rect x="272" y="256" style="fill:#3F3A34;" width="16" height="16"/>
	<rect x="304" y="256" style="fill:#3F3A34;" width="16" height="16"/>
	<rect x="336" y="256" style="fill:#3F3A34;" width="16" height="16"/>
	<rect x="368" y="256" style="fill:#3F3A34;" width="16" height="16"/>
	<rect x="400" y="256" style="fill:#3F3A34;" width="16" height="16"/>
	<rect x="432" y="256" style="fill:#3F3A34;" width="16" height="16"/>
	<rect x="464" y="256" style="fill:#3F3A34;" width="16" height="16"/>
	<rect x="16" y="256" style="fill:#3F3A34;" width="16" height="16"/>
	<rect x="32" y="224" style="fill:#3F3A34;" width="16" height="16"/>
	<rect x="64" y="224" style="fill:#3F3A34;" width="16" height="16"/>
	<rect x="96" y="224" style="fill:#3F3A34;" width="16" height="16"/>
	<rect x="128" y="224" style="fill:#3F3A34;" width="16" height="16"/>
	<rect x="160" y="224" style="fill:#3F3A34;" width="16" height="16"/>
	<rect x="192" y="224" style="fill:#3F3A34;" width="16" height="16"/>
	<rect x="224" y="224" style="fill:#3F3A34;" width="16" height="16"/>
	<rect x="256" y="224" style="fill:#3F3A34;" width="16" height="16"/>
	<rect x="288" y="224" style="fill:#3F3A34;" width="16" height="16"/>
	<rect x="320" y="224" style="fill:#3F3A34;" width="16" height="16"/>
	<rect x="352" y="224" style="fill:#3F3A34;" width="16" height="16"/>
	<rect x="384" y="224" style="fill:#3F3A34;" width="16" height="16"/>
	<rect x="416" y="224" style="fill:#3F3A34;" width="16" height="16"/>
	<rect x="448" y="224" style="fill:#3F3A34;" width="16" height="16"/>
	<rect x="48" y="192" style="fill:#3F3A34;" width="16" height="16"/>
	<rect x="80" y="192" style="fill:#3F3A34;" width="16" height="16"/>
	<rect x="112" y="192" style="fill:#3F3A34;" width="16" height="16"/>
	<rect x="144" y="192" style="fill:#3F3A34;" width="16" height="16"/>
	<rect x="176" y="192" style="fill:#3F3A34;" width="16" height="16"/>
	<rect x="208" y="192" style="fill:#3F3A34;" width="16" height="16"/>
	<rect x="240" y="192" style="fill:#3F3A34;" width="16" height="16"/>
	<rect x="272" y="192" style="fill:#3F3A34;" width="16" height="16"/>
	<rect x="304" y="192" style="fill:#3F3A34;" width="16" height="16"/>
	<rect x="336" y="192" style="fill:#3F3A34;" width="16" height="16"/>
	<rect x="368" y="192" style="fill:#3F3A34;" width="16" height="16"/>
	<rect x="400" y="192" style="fill:#3F3A34;" width="16" height="16"/>
	<rect x="432" y="192" style="fill:#3F3A34;" width="16" height="16"/>
	<rect x="464" y="192" style="fill:#3F3A34;" width="16" height="16"/>
	<rect x="16" y="192" style="fill:#3F3A34;" width="16" height="16"/>
	<rect x="32" y="160" style="fill:#3F3A34;" width="16" height="16"/>
	<rect x="64" y="160" style="fill:#3F3A34;" width="16" height="16"/>
	<rect x="96" y="160" style="fill:#3F3A34;" width="16" height="16"/>
	<rect x="128" y="160" style="fill:#3F3A34;" width="16" height="16"/>
	<rect x="160" y="160" style="fill:#3F3A34;" width="16" height="16"/>
	<rect x="192" y="160" style="fill:#3F3A34;" width="16" height="16"/>
	<rect x="224" y="160" style="fill:#3F3A34;" width="16" height="16"/>
	<rect x="256" y="160" style="fill:#3F3A34;" width="16" height="16"/>
	<rect x="288" y="160" style="fill:#3F3A34;" width="16" height="16"/>
	<rect x="320" y="160" style="fill:#3F3A34;" width="16" height="16"/>
	<rect x="352" y="160" style="fill:#3F3A34;" width="16" height="16"/>
	<rect x="384" y="160" style="fill:#3F3A34;" width="16" height="16"/>
	<rect x="416" y="160" style="fill:#3F3A34;" width="16" height="16"/>
	<rect x="448" y="160" style="fill:#3F3A34;" width="16" height="16"/>
</g>
<g>
</g>
<g>
</g>
<g>
</g>
<g>
</g>
<g>
</g>
<g>
</g>
<g>
</g>
<g>
</g>
<g>
</g>
<g>
</g>
<g>
</g>
<g>
</g>
<g>
</g>
<g>
</g>
<g>
</g>
</svg>
