<?xml version="1.0" encoding="iso-8859-1"?>
<!-- Generator: Adobe Illustrator 19.0.0, SVG Export Plug-In . SVG Version: 6.00 Build 0)  -->
<svg xmlns="http://www.w3.org/2000/svg" xmlns:xlink="http://www.w3.org/1999/xlink" version="1.1" id="Layer_1" x="0px" y="0px" viewBox="0 0 496 496" style="enable-background:new 0 0 496 496;" xml:space="preserve">
<path style="fill:#FFCB57;" d="M248,264c114.872,0,208-93.128,208-208H40C40,170.872,133.128,264,248,264z"/>
<path style="fill:#F2BE55;" d="M416,56c0,108.128-82.512,196.952-188,207.024c6.584,0.624,13.248,0.976,20,0.976  c114.872,0,208-93.128,208-208H416z"/>
<rect x="40" y="24" style="fill:#B5B5B5;" width="416" height="32"/>
<rect x="416" y="24" style="fill:#9B9B9B;" width="40" height="32"/>
<g>
	<path style="fill:#3F3A34;" d="M248,272C128.896,272,32,175.104,32,56V16h432v40C464,175.104,367.104,272,248,272z M48,32v24   c0,110.28,89.72,200,200,200s200-89.72,200-200V32H48z"/>
	<rect x="16" y="48" style="fill:#3F3A34;" width="464" height="16"/>
	<rect x="16" y="16" style="fill:#3F3A34;" width="464" height="16"/>
	<rect x="80" style="fill:#3F3A34;" width="16" height="56"/>
	<rect x="160" style="fill:#3F3A34;" width="16" height="56"/>
	<rect x="240" style="fill:#3F3A34;" width="16" height="56"/>
	<rect x="320" style="fill:#3F3A34;" width="16" height="56"/>
	<rect x="400" style="fill:#3F3A34;" width="16" height="56"/>
</g>
<path style="fill:#A8A8A8;" d="M40,144c-17.672,0-32,14.328-32,32s14.328,32,32,32h6.752c8.168,10.608,22.472,32.128,35.616,66.576  l20.216,73.288c5.256,28.216,8.768,60.936,9.296,98.464C107.072,450.712,104,456.976,104,464c0,13.256,10.744,24,24,24  s24-10.744,24-24C152,256,80,144,40,144z"/>
<path style="fill:#9B9B9B;" d="M40,144c-4.52,0-8.816,0.96-12.72,2.656C68.168,164.576,128,274.368,128,464  c0,8.864-4.856,16.512-12,20.672c3.544,2.064,7.608,3.328,12,3.328c13.256,0,24-10.744,24-24C152,256,80,144,40,144z"/>
<g>
	<path style="fill:#3F3A34;" d="M128,496c-17.648,0-32-14.352-32-32s14.352-32,32-32v16c-8.824,0-16,7.176-16,16s7.176,16,16,16   s16-7.176,16-16c0-201.872-68.704-312-104-312c-13.232,0-24,10.768-24,24s10.768,24,24,24h24v16H40c-22.056,0-40-17.944-40-40   s17.944-40,40-40c50.112,0,120,124.784,120,328C160,481.648,145.648,496,128,496z"/>
	<path style="fill:#3F3A34;" d="M103.952,447.936c-1.64-140.008-45.056-211.12-63.64-235.184l12.656-9.784   c19.576,25.344,65.288,99.936,66.984,244.784L103.952,447.936z"/>
</g>
<path style="fill:#A8A8A8;" d="M456,144c17.672,0,32,14.328,32,32s-14.328,32-32,32h-6.752  c-8.168,10.608-22.472,32.128-35.616,66.576l-20.216,73.288c-5.256,28.216-8.768,60.936-9.296,98.464  c4.808,4.384,7.88,10.648,7.88,17.672c0,13.256-10.744,24-24,24s-24-10.744-24-24C344,256,416,144,456,144z"/>
<path style="fill:#9B9B9B;" d="M456,144c-3.536,0-7.32,0.92-11.28,2.656C456.056,151.576,464,162.848,464,176  c0,17.672-14.328,32-32,32h-6.752c-8.168,10.608-22.472,32.128-35.616,66.576l-20.216,73.288  c-5.256,28.216-8.768,60.936-9.296,98.464c4.808,4.384,7.88,10.648,7.88,17.672c0,8.864-4.856,16.512-12,20.672  c3.544,2.064,7.608,3.328,12,3.328c13.256,0,24-10.744,24-24c0-7.024-3.072-13.288-7.88-17.672  c0.528-37.528,4.04-70.248,9.296-98.464l20.216-73.288c13.144-34.44,27.44-55.968,35.616-66.576H456c17.672,0,32-14.328,32-32  C488,158.328,473.672,144,456,144z"/>
<g>
	<path style="fill:#3F3A34;" d="M368,496c-17.648,0-32-14.352-32-32c0-203.216,69.888-328,120-328c22.056,0,40,17.944,40,40   s-17.944,40-40,40h-24v-16h24c13.232,0,24-10.768,24-24s-10.768-24-24-24c-35.296,0-104,110.128-104,312c0,8.824,7.176,16,16,16   s16-7.176,16-16s-7.176-16-16-16v-16c17.648,0,32,14.352,32,32S385.648,496,368,496z"/>
	<path style="fill:#3F3A34;" d="M392.048,447.936l-16-0.184c1.696-144.848,47.408-219.432,66.984-244.784l12.656,9.784   C437.104,236.816,393.688,307.92,392.048,447.936z"/>
	<path style="fill:#3F3A34;" d="M139.264,204.336c-32.968-24.2-57.216-59.064-68.28-98.152l15.392-4.36   c10.104,35.68,32.248,67.504,62.36,89.616L139.264,204.336z"/>
	<path style="fill:#3F3A34;" d="M171.36,223.272c-4.968-2.28-9.992-4.896-15.368-8l8.016-13.848c4.928,2.856,9.52,5.248,14.024,7.32   L171.36,223.272z"/>
</g>
<g>
</g>
<g>
</g>
<g>
</g>
<g>
</g>
<g>
</g>
<g>
</g>
<g>
</g>
<g>
</g>
<g>
</g>
<g>
</g>
<g>
</g>
<g>
</g>
<g>
</g>
<g>
</g>
<g>
</g>
</svg>
