<?xml version="1.0" encoding="iso-8859-1"?>
<!-- Generator: Adobe Illustrator 19.0.0, SVG Export Plug-In . SVG Version: 6.00 Build 0)  -->
<svg xmlns="http://www.w3.org/2000/svg" xmlns:xlink="http://www.w3.org/1999/xlink" version="1.1" id="Layer_1" x="0px" y="0px" viewBox="0 0 496 496" style="enable-background:new 0 0 496 496;" xml:space="preserve">
<path style="fill:#A8A8A8;" d="M416,456H80c-8.84,0-16-7.16-16-16V24c0-8.84,7.16-16,16-16h336c8.84,0,16,7.16,16,16v416  C432,448.84,424.84,456,416,456z"/>
<path style="fill:#9B9B9B;" d="M416,8h-24c8.84,0,16,7.16,16,16v416c0,8.84-7.16,16-16,16h24c8.84,0,16-7.16,16-16V24  C432,15.16,424.84,8,416,8z"/>
<path style="fill:#3F3A34;" d="M416,464H80c-13.232,0-24-10.768-24-24V24C56,10.768,66.768,0,80,0h336c13.232,0,24,10.768,24,24v416  C440,453.232,429.232,464,416,464z M80,16c-4.416,0-8,3.584-8,8v416c0,4.416,3.584,8,8,8h336c4.416,0,8-3.584,8-8V24  c0-4.416-3.584-8-8-8H80z"/>
<path style="fill:#EFE7E4;" d="M96,456v-48c0-17.672,14.328-32,32-32h240c17.672,0,32,14.328,32,32v48H96z"/>
<path style="fill:#D8D1D0;" d="M368,376h-24c17.672,0,32,14.328,32,32v48h24v-48C400,390.328,385.672,376,368,376z"/>
<rect x="80" y="456" style="fill:#6D6E71;" width="336" height="32"/>
<rect x="304" y="456" style="fill:#575759;" width="112" height="32"/>
<path style="fill:#3F3A34;" d="M424,496H72v-48h352V496z M88,480h320v-16H88V480z"/>
<circle style="fill:#EFE7E4;" cx="144" cy="88" r="48"/>
<path style="fill:#D8D1D0;" d="M144,40c-4.152,0-8.16,0.584-12,1.576C152.688,46.912,168,65.64,168,88s-15.312,41.088-36,46.424  c3.84,0.992,7.848,1.576,12,1.576c26.512,0,48-21.488,48-48S170.512,40,144,40z"/>
<path style="fill:#3F3A34;" d="M144,144c-30.872,0-56-25.128-56-56s25.128-56,56-56s56,25.128,56,56S174.872,144,144,144z M144,48  c-22.056,0-40,17.944-40,40s17.944,40,40,40s40-17.944,40-40S166.056,48,144,48z"/>
<circle style="fill:#6D6E71;" cx="144" cy="88" r="16"/>
<path style="fill:#575759;" d="M144,72c-2.928,0-5.64,0.848-8,2.216c4.76,2.768,8,7.872,8,13.784c0,5.904-3.24,11.008-8,13.784  c2.36,1.368,5.072,2.216,8,2.216c8.84,0,16-7.16,16-16S152.84,72,144,72z"/>
<path style="fill:#3F3A34;" d="M144,112c-13.232,0-24-10.768-24-24s10.768-24,24-24s24,10.768,24,24S157.232,112,144,112z M144,80  c-4.416,0-8,3.584-8,8s3.584,8,8,8s8-3.584,8-8S148.416,80,144,80z"/>
<circle style="fill:#EFE7E4;" cx="352" cy="88" r="48"/>
<path style="fill:#D8D1D0;" d="M352,40c-4.152,0-8.16,0.584-12,1.576C360.688,46.912,376,65.64,376,88s-15.312,41.088-36,46.424  c3.84,0.992,7.848,1.576,12,1.576c26.512,0,48-21.488,48-48S378.512,40,352,40z"/>
<path style="fill:#3F3A34;" d="M352,144c-30.872,0-56-25.128-56-56s25.128-56,56-56s56,25.128,56,56S382.872,144,352,144z M352,48  c-22.056,0-40,17.944-40,40s17.944,40,40,40s40-17.944,40-40S374.056,48,352,48z"/>
<circle style="fill:#6D6E71;" cx="352" cy="88" r="16"/>
<path style="fill:#575759;" d="M352,72c-2.928,0-5.64,0.848-8,2.216c4.76,2.768,8,7.872,8,13.784c0,5.904-3.24,11.008-8,13.784  c2.36,1.368,5.072,2.216,8,2.216c8.84,0,16-7.16,16-16S360.84,72,352,72z"/>
<path style="fill:#3F3A34;" d="M352,112c-13.232,0-24-10.768-24-24s10.768-24,24-24s24,10.768,24,24S365.232,112,352,112z M352,80  c-4.416,0-8,3.584-8,8s3.584,8,8,8s8-3.584,8-8S356.416,80,352,80z"/>
<circle style="fill:#EFE7E4;" cx="248" cy="240" r="104"/>
<path style="fill:#D8D1D0;" d="M248,136c-4.064,0-8.056,0.288-12,0.744c51.776,5.96,92,49.88,92,103.256s-40.224,97.296-92,103.256  c3.944,0.456,7.936,0.744,12,0.744c57.44,0,104-46.56,104-104S305.44,136,248,136z"/>
<path style="fill:#3F3A34;" d="M248,352c-61.76,0-112-50.24-112-112s50.24-112,112-112s112,50.24,112,112S309.76,352,248,352z   M248,144c-52.936,0-96,43.064-96,96s43.064,96,96,96s96-43.064,96-96S300.936,144,248,144z"/>
<circle style="fill:#A8A8A8;" cx="248" cy="240" r="72"/>
<path style="fill:#9B9B9B;" d="M248,168c-4.096,0-8.088,0.424-12,1.08c34.04,5.72,60,35.256,60,70.92s-25.96,65.2-60,70.92  c3.912,0.656,7.904,1.08,12,1.08c39.768,0,72-32.232,72-72S287.768,168,248,168z"/>
<path style="fill:#3F3A34;" d="M248,320c-44.112,0-80-35.888-80-80s35.888-80,80-80s80,35.888,80,80S292.112,320,248,320z M248,176  c-35.288,0-64,28.712-64,64s28.712,64,64,64s64-28.712,64-64S283.288,176,248,176z"/>
<circle style="fill:#6D6E71;" cx="248" cy="240" r="24"/>
<path style="fill:#575759;" d="M248,216c-2.824,0-5.488,0.576-8,1.472c9.304,3.304,16,12.096,16,22.528s-6.696,19.224-16,22.528  c2.512,0.896,5.176,1.472,8,1.472c13.256,0,24-10.744,24-24S261.256,216,248,216z"/>
<path style="fill:#3F3A34;" d="M248,272c-17.648,0-32-14.352-32-32s14.352-32,32-32s32,14.352,32,32S265.648,272,248,272z M248,224  c-8.824,0-16,7.176-16,16s7.176,16,16,16s16-7.176,16-16S256.824,224,248,224z"/>
<circle style="fill:#FFCB57;" cx="152" cy="416" r="16"/>
<path style="fill:#F2BE55;" d="M152,400c-2.928,0-5.64,0.848-8,2.216c4.76,2.768,8,7.872,8,13.784c0,5.904-3.24,11.008-8,13.784  c2.36,1.368,5.072,2.216,8,2.216c8.84,0,16-7.16,16-16S160.84,400,152,400z"/>
<path style="fill:#3F3A34;" d="M152,440c-13.232,0-24-10.768-24-24s10.768-24,24-24s24,10.768,24,24S165.232,440,152,440z M152,408  c-4.416,0-8,3.584-8,8s3.584,8,8,8s8-3.584,8-8S156.416,408,152,408z"/>
<circle style="fill:#FFCB57;" cx="216" cy="416" r="16"/>
<path style="fill:#F2BE55;" d="M216,400c-2.928,0-5.64,0.848-8,2.216c4.76,2.768,8,7.872,8,13.784c0,5.904-3.24,11.008-8,13.784  c2.36,1.368,5.072,2.216,8,2.216c8.84,0,16-7.16,16-16S224.84,400,216,400z"/>
<path style="fill:#3F3A34;" d="M216,440c-13.232,0-24-10.768-24-24s10.768-24,24-24s24,10.768,24,24S229.232,440,216,440z M216,408  c-4.416,0-8,3.584-8,8s3.584,8,8,8s8-3.584,8-8S220.416,408,216,408z"/>
<circle style="fill:#FFCB57;" cx="280" cy="416" r="16"/>
<path style="fill:#F2BE55;" d="M280,400c-2.928,0-5.64,0.848-8,2.216c4.76,2.768,8,7.872,8,13.784c0,5.904-3.24,11.008-8,13.784  c2.36,1.368,5.072,2.216,8,2.216c8.84,0,16-7.16,16-16S288.84,400,280,400z"/>
<path style="fill:#3F3A34;" d="M280,440c-13.232,0-24-10.768-24-24s10.768-24,24-24s24,10.768,24,24S293.232,440,280,440z M280,408  c-4.416,0-8,3.584-8,8s3.584,8,8,8s8-3.584,8-8S284.416,408,280,408z"/>
<circle style="fill:#FFCB57;" cx="344" cy="416" r="16"/>
<path style="fill:#F2BE55;" d="M344,400c-2.928,0-5.64,0.848-8,2.216c4.76,2.768,8,7.872,8,13.784c0,5.904-3.24,11.008-8,13.784  c2.36,1.368,5.072,2.216,8,2.216c8.84,0,16-7.16,16-16S352.84,400,344,400z"/>
<g>
	<path style="fill:#3F3A34;" d="M344,440c-13.232,0-24-10.768-24-24s10.768-24,24-24s24,10.768,24,24S357.232,440,344,440z M344,408   c-4.416,0-8,3.584-8,8s3.584,8,8,8s8-3.584,8-8S348.416,408,344,408z"/>
	<path style="fill:#3F3A34;" d="M408,456h-16v-48c0-13.232-10.768-24-24-24H160v-16h208c22.056,0,40,17.944,40,40V456z"/>
	<path style="fill:#3F3A34;" d="M104,456H88v-48c0-22.056,17.944-40,40-40h16v16h-16c-13.232,0-24,10.768-24,24V456z"/>
</g>
<g>
</g>
<g>
</g>
<g>
</g>
<g>
</g>
<g>
</g>
<g>
</g>
<g>
</g>
<g>
</g>
<g>
</g>
<g>
</g>
<g>
</g>
<g>
</g>
<g>
</g>
<g>
</g>
<g>
</g>
</svg>
