<?xml version="1.0" encoding="iso-8859-1"?>
<!-- Generator: Adobe Illustrator 19.0.0, SVG Export Plug-In . SVG Version: 6.00 Build 0)  -->
<svg xmlns="http://www.w3.org/2000/svg" xmlns:xlink="http://www.w3.org/1999/xlink" version="1.1" id="Layer_1" x="0px" y="0px" viewBox="0 0 496 496" style="enable-background:new 0 0 496 496;" xml:space="preserve">
<circle style="fill:#FF6E6E;" cx="248" cy="152" r="144"/>
<path style="fill:#E56565;" d="M248,8c-5.416,0-10.744,0.36-16,0.936C303.992,16.904,360,77.888,360,152  s-56.008,135.096-128,143.064c5.256,0.576,10.584,0.936,16,0.936c79.528,0,144-64.472,144-144S327.528,8,248,8z"/>
<path style="fill:#FFCB57;" d="M248,64c-32,0-32,24-64,24c-23.312,0-29.72-12.704-53.08-19.624C114.04,91.968,104,120.784,104,152  s10.04,60.032,26.92,83.624C154.28,228.704,160.688,216,184,216c32,0,32,24,64,24s32-24,64-24c23.312,0,29.72,12.704,53.08,19.624  C381.96,212.032,392,183.216,392,152s-10.04-60.032-26.92-83.624C341.72,75.296,335.312,88,312,88C280,88,280,64,248,64z"/>
<path style="fill:#F2BE55;" d="M340.416,79.728C352.8,100.976,360,125.624,360,152s-7.2,51.024-19.584,72.272  c6.84,3.816,13.968,8.176,24.664,11.344C381.96,212.032,392,183.216,392,152s-10.04-60.032-26.92-83.624  C354.384,71.544,347.256,75.904,340.416,79.728z"/>
<path style="fill:#3F3A34;" d="M248,304c-83.816,0-152-68.184-152-152S164.184,0,248,0s152,68.184,152,152S331.816,304,248,304z   M248,16c-74.992,0-136,61.008-136,136s61.008,136,136,136s136-61.008,136-136S322.992,16,248,16z"/>
<path style="fill:#A8A8A8;" d="M250.488,488h-4.976C224.792,488,208,471.208,208,450.488l0,0c0-1.656,0.112-3.312,0.328-4.96  L224,328h48l15.672,117.536c0.216,1.64,0.328,3.296,0.328,4.952l0,0C288,471.208,271.208,488,250.488,488z"/>
<path style="fill:#9B9B9B;" d="M287.672,445.528L272,328h-24l15.672,117.528c0.216,1.648,0.328,3.304,0.328,4.96  c0,17.408-11.92,31.912-28,36.144c3.056,0.808,6.2,1.368,9.512,1.368h4.976c20.72,0,37.512-16.792,37.512-37.512  C288,448.832,287.888,447.176,287.672,445.528z"/>
<path style="fill:#3F3A34;" d="M250.488,496h-4.976C220.416,496,200,475.584,200,450.496c0-2.016,0.136-4.032,0.4-6.016L216.992,320  H279l16.6,124.48c0.264,1.984,0.4,4,0.4,6.016C296,475.584,275.584,496,250.488,496z M231,336l-14.744,110.584  c-0.168,1.296-0.256,2.592-0.256,3.912C216,466.768,229.24,480,245.512,480h4.976C266.76,480,280,466.768,280,450.496  c0-1.312-0.088-2.608-0.256-3.904L265,336H231z"/>
<path style="fill:#A8A8A8;" d="M276,336h-56c-11.048,0-20-8.952-20-20l0,0c0-11.048,8.952-20,20-20h56c11.048,0,20,8.952,20,20l0,0  C296,327.048,287.048,336,276,336z"/>
<path style="fill:#9B9B9B;" d="M276,296h-24c11.048,0,20,8.952,20,20s-8.952,20-20,20h24c11.048,0,20-8.952,20-20  S287.048,296,276,296z"/>
<g>
	<path style="fill:#3F3A34;" d="M276,344h-56c-15.44,0-28-12.56-28-28s12.56-28,28-28h56c15.44,0,28,12.56,28,28S291.44,344,276,344   z M220,304c-6.616,0-12,5.384-12,12s5.384,12,12,12h56c6.616,0,12-5.384,12-12s-5.384-12-12-12H220z"/>
	<path style="fill:#3F3A34;" d="M248,248c-18.664,0-28.304-7.224-36.8-13.6c-7.744-5.808-13.864-10.4-27.2-10.4   c-11.688,0-17.992,3.552-26.704,8.48c-6.424,3.624-13.696,7.728-24.104,10.816l-4.544-15.344c8.672-2.568,14.832-6.04,20.784-9.408   C158.616,213.36,168.112,208,184,208c18.664,0,28.304,7.224,36.8,13.6c7.744,5.808,13.864,10.4,27.2,10.4s19.456-4.592,27.2-10.4   c8.496-6.376,18.136-13.6,36.8-13.6c15.888,0,25.384,5.36,34.568,10.544c5.96,3.36,12.112,6.84,20.784,9.408l-4.544,15.344   c-10.408-3.088-17.68-7.192-24.104-10.816C329.992,227.552,323.688,224,312,224c-13.336,0-19.456,4.592-27.2,10.4   C276.304,240.776,266.664,248,248,248z"/>
	<path style="fill:#3F3A34;" d="M312,96c-18.664,0-28.304-7.224-36.8-13.6C267.456,76.592,261.336,72,248,72   s-19.456,4.592-27.2,10.4C212.304,88.776,202.664,96,184,96c-15.888,0-25.384-5.36-34.568-10.544   c-5.96-3.36-12.112-6.84-20.784-9.408l4.544-15.344c10.408,3.088,17.68,7.192,24.104,10.816C166.008,76.448,172.312,80,184,80   c13.336,0,19.456-4.592,27.2-10.4C219.696,63.224,229.336,56,248,56s28.304,7.224,36.8,13.6C292.544,75.408,298.664,80,312,80   c11.688,0,17.992-3.552,26.704-8.48c6.424-3.624,13.696-7.728,24.104-10.816l4.544,15.344c-8.672,2.568-14.832,6.04-20.784,9.408   C337.384,90.64,327.888,96,312,96z"/>
	<rect x="240" y="104" style="fill:#3F3A34;" width="16" height="16"/>
	<rect x="240" y="184" style="fill:#3F3A34;" width="16" height="16"/>
	<rect x="120" y="104" style="fill:#3F3A34;" width="16" height="16"/>
	<rect x="120" y="184" style="fill:#3F3A34;" width="16" height="16"/>
	<rect x="304" y="120" style="fill:#3F3A34;" width="16" height="16"/>
	<rect x="304" y="168" style="fill:#3F3A34;" width="16" height="16"/>
	<rect x="176" y="120" style="fill:#3F3A34;" width="16" height="16"/>
	<rect x="176" y="168" style="fill:#3F3A34;" width="16" height="16"/>
	<rect x="360" y="104" style="fill:#3F3A34;" width="16" height="16"/>
	<rect x="360" y="184" style="fill:#3F3A34;" width="16" height="16"/>
</g>
<g>
</g>
<g>
</g>
<g>
</g>
<g>
</g>
<g>
</g>
<g>
</g>
<g>
</g>
<g>
</g>
<g>
</g>
<g>
</g>
<g>
</g>
<g>
</g>
<g>
</g>
<g>
</g>
<g>
</g>
</svg>
