<?xml version="1.0" encoding="iso-8859-1"?>
<!-- Generator: Adobe Illustrator 19.0.0, SVG Export Plug-In . SVG Version: 6.00 Build 0)  -->
<svg xmlns="http://www.w3.org/2000/svg" xmlns:xlink="http://www.w3.org/1999/xlink" version="1.1" id="Layer_1" x="0px" y="0px" viewBox="0 0 496 496" style="enable-background:new 0 0 496 496;" xml:space="preserve">
<path style="fill:#FFCB57;" d="M368,72H128c0,0-16,48-16,144c0,112,64,272,64,272h72h72c0,0,64-160,64-272C384,120,368,72,368,72z"/>
<path style="fill:#F2BE55;" d="M368,72h-32c0,0,16,48,16,144c0,112-64,272-64,272h32c0,0,64-160,64-272C384,120,368,72,368,72z"/>
<path style="fill:#EFE7E4;" d="M130.456,344h235.088c2.568-10.52,4.992-21.224,7.184-32H123.272  C125.472,322.776,127.888,333.48,130.456,344z"/>
<path style="fill:#D8D1D0;" d="M365.544,344c2.568-10.52,4.992-21.224,7.184-32h-32c-2.2,10.776-4.616,21.48-7.184,32H365.544z"/>
<path style="fill:#3F3A34;" d="M325.416,496H170.584l-2.016-5.024C165.936,484.376,104,328.248,104,216  c0-96.192,15.744-144.52,16.416-146.528l15.176,5.048C135.44,74.992,120,122.752,120,216c0,98.16,50.792,236.08,61.48,264h133.048  C325.208,452.08,376,314.16,376,216c0-93.248-15.44-141.008-15.592-141.48l15.176-5.048C376.256,71.48,392,119.808,392,216  c0,112.248-61.936,268.376-64.568,274.976L325.416,496z"/>
<rect x="128" y="8" style="fill:#EFE7E4;" width="240" height="32"/>
<rect x="320" y="8" style="fill:#D8D1D0;" width="48" height="32"/>
<path style="fill:#3F3A34;" d="M376,48H120V0h256V48z M136,32h224V16H136V32z"/>
<rect x="112" y="40" style="fill:#EFE7E4;" width="272" height="32"/>
<rect x="296" y="40" style="fill:#D8D1D0;" width="88" height="32"/>
<g>
	<path style="fill:#3F3A34;" d="M392,80H104V32h288V80z M120,64h256V48H120V64z"/>
	<path style="fill:#3F3A34;" d="M107.2,158.4l-25.6-19.2c-6.016-4.52-9.6-11.696-9.6-19.2V72c0-13.232,10.768-24,24-24h16v16H96   c-4.416,0-8,3.592-8,8v48c0,2.504,1.192,4.896,3.2,6.408l25.6,19.192L107.2,158.4z"/>
	<path style="fill:#3F3A34;" d="M388.8,158.4l-9.6-12.8l25.6-19.2c2.008-1.504,3.2-3.896,3.2-6.4V72c0-4.408-3.584-8-8-8h-16V48h16   c13.232,0,24,10.768,24,24v48c0,7.504-3.584,14.68-9.592,19.192L388.8,158.4z"/>
	<rect x="240" y="104" style="fill:#3F3A34;" width="16" height="56"/>
	<polygon style="fill:#3F3A34;" points="280,112 216,112 216,40 232,40 232,96 264,96 264,40 280,40  "/>
	<rect x="168" y="304" style="fill:#3F3A34;" width="200" height="16"/>
	<rect x="128" y="304" style="fill:#3F3A34;" width="24" height="16"/>
	<rect x="128" y="336" style="fill:#3F3A34;" width="240" height="16"/>
</g>
<g>
</g>
<g>
</g>
<g>
</g>
<g>
</g>
<g>
</g>
<g>
</g>
<g>
</g>
<g>
</g>
<g>
</g>
<g>
</g>
<g>
</g>
<g>
</g>
<g>
</g>
<g>
</g>
<g>
</g>
</svg>
