<?xml version="1.0" encoding="iso-8859-1"?>
<!-- Generator: Adobe Illustrator 19.0.0, SVG Export Plug-In . SVG Version: 6.00 Build 0)  -->
<svg xmlns="http://www.w3.org/2000/svg" xmlns:xlink="http://www.w3.org/1999/xlink" version="1.1" id="Layer_1" x="0px" y="0px" viewBox="0 0 496 496" style="enable-background:new 0 0 496 496;" xml:space="preserve">
<path style="fill:#FFCB57;" d="M408,8H88c-8.84,0-16,7.16-16,16v416c0,8.84,7.16,16,16,16h320c8.84,0,16-7.16,16-16V24  C424,15.16,416.84,8,408,8z"/>
<path style="fill:#F2BE55;" d="M408,8h-40c8.84,0,16,7.16,16,16v416c0,8.84-7.16,16-16,16h40c8.84,0,16-7.16,16-16V24  C424,15.16,416.84,8,408,8z"/>
<path style="fill:#3F3A34;" d="M408,464H88c-13.232,0-24-10.768-24-24V24C64,10.768,74.768,0,88,0h320c13.232,0,24,10.768,24,24v416  C432,453.232,421.232,464,408,464z M88,16c-4.416,0-8,3.592-8,8v416c0,4.416,3.584,8,8,8h320c4.416,0,8-3.584,8-8V24  c0-4.408-3.584-8-8-8H88z"/>
<g>
	<rect x="88" y="456" style="fill:#6D6E71;" width="32" height="32"/>
	<rect x="376" y="456" style="fill:#6D6E71;" width="32" height="32"/>
</g>
<g>
	<path style="fill:#3F3A34;" d="M128,496H80v-48h48V496z M96,480h16v-16H96V480z"/>
	<path style="fill:#3F3A34;" d="M416,496h-48v-48h48V496z M384,480h16v-16h-16V480z"/>
	<rect x="104" y="416" style="fill:#3F3A34;" width="16" height="16"/>
	<rect x="192" y="416" style="fill:#3F3A34;" width="16" height="16"/>
	<rect x="288" y="416" style="fill:#3F3A34;" width="16" height="16"/>
	<rect x="376" y="416" style="fill:#3F3A34;" width="16" height="16"/>
	<rect x="144" y="32" style="fill:#3F3A34;" width="16" height="16"/>
	<rect x="336" y="32" style="fill:#3F3A34;" width="16" height="16"/>
	<rect x="240" y="32" style="fill:#3F3A34;" width="16" height="16"/>
	<rect x="96" y="136" style="fill:#3F3A34;" width="16" height="16"/>
	<rect x="96" y="224" style="fill:#3F3A34;" width="16" height="16"/>
	<rect x="96" y="312" style="fill:#3F3A34;" width="16" height="16"/>
	<rect x="384" y="136" style="fill:#3F3A34;" width="16" height="16"/>
	<rect x="384" y="224" style="fill:#3F3A34;" width="16" height="16"/>
	<rect x="384" y="312" style="fill:#3F3A34;" width="16" height="16"/>
	<rect x="192" y="336" style="fill:#3F3A34;" width="160" height="16"/>
	<rect x="336" y="368" style="fill:#3F3A34;" width="16" height="16"/>
	<rect x="288" y="368" style="fill:#3F3A34;" width="32" height="16"/>
</g>
<g>
</g>
<g>
</g>
<g>
</g>
<g>
</g>
<g>
</g>
<g>
</g>
<g>
</g>
<g>
</g>
<g>
</g>
<g>
</g>
<g>
</g>
<g>
</g>
<g>
</g>
<g>
</g>
<g>
</g>
</svg>
