<?xml version="1.0" encoding="iso-8859-1"?>
<!-- Generator: Adobe Illustrator 19.0.0, SVG Export Plug-In . SVG Version: 6.00 Build 0)  -->
<svg xmlns="http://www.w3.org/2000/svg" xmlns:xlink="http://www.w3.org/1999/xlink" version="1.1" id="Layer_1" x="0px" y="0px" viewBox="0 0 496 496" style="enable-background:new 0 0 496 496;" xml:space="preserve">
<path style="fill:#FF6E6E;" d="M472,400h-48V96h48c8.84,0,16,7.16,16,16v272C488,392.84,480.84,400,472,400z"/>
<path style="fill:#E56565;" d="M472,96h-24c8.84,0,16,7.16,16,16v272c0,8.84-7.16,16-16,16h24c8.84,0,16-7.16,16-16V112  C488,103.16,480.84,96,472,96z"/>
<path style="fill:#3F3A34;" d="M472,408h-56V88h56c13.232,0,24,10.768,24,24v272C496,397.232,485.232,408,472,408z M432,392h40  c4.416,0,8-3.592,8-8V112c0-4.408-3.584-8-8-8h-40V392z"/>
<path style="fill:#FF6E6E;" d="M72,384H40c-17.672,0-32-14.328-32-32V144c0-17.672,14.328-32,32-32h32V384z"/>
<rect x="48" y="112" style="fill:#E56565;" width="24" height="272"/>
<path style="fill:#3F3A34;" d="M80,392H40c-22.056,0-40-17.944-40-40V144c0-22.056,17.944-40,40-40h40V392z M40,120  c-13.232,0-24,10.768-24,24v208c0,13.232,10.768,24,24,24h24V120H40z"/>
<path style="fill:#FF6E6E;" d="M136,400H88c-8.84,0-16-7.16-16-16V112c0-8.84,7.16-16,16-16h48V400z"/>
<rect x="112" y="96" style="fill:#E56565;" width="24" height="304"/>
<path style="fill:#3F3A34;" d="M144,408H88c-13.232,0-24-10.768-24-24V112c0-13.232,10.768-24,24-24h56V408z M88,104  c-4.416,0-8,3.592-8,8v272c0,4.408,3.584,8,8,8h40V104H88z"/>
<rect x="136" y="112" style="fill:#EFE7E4;" width="288" height="272"/>
<rect x="136" y="256" style="fill:#D8D1D0;" width="288" height="128"/>
<g>
	<path style="fill:#3F3A34;" d="M432,392H128V104h304V392z M144,376h272V120H144V376z"/>
	<rect x="384" y="88" style="fill:#3F3A34;" width="16" height="320"/>
	<rect x="352" y="88" style="fill:#3F3A34;" width="16" height="320"/>
	<rect x="320" y="88" style="fill:#3F3A34;" width="16" height="320"/>
	<rect x="288" y="88" style="fill:#3F3A34;" width="16" height="320"/>
	<rect x="256" y="88" style="fill:#3F3A34;" width="16" height="320"/>
	<rect x="224" y="88" style="fill:#3F3A34;" width="16" height="320"/>
	<rect x="192" y="88" style="fill:#3F3A34;" width="16" height="320"/>
	<rect x="160" y="88" style="fill:#3F3A34;" width="16" height="320"/>
	<rect x="32" y="160" style="fill:#3F3A34;" width="16" height="16"/>
	<rect x="32" y="192" style="fill:#3F3A34;" width="16" height="16"/>
	<rect x="32" y="224" style="fill:#3F3A34;" width="16" height="16"/>
	<rect x="32" y="256" style="fill:#3F3A34;" width="16" height="16"/>
	<rect x="32" y="288" style="fill:#3F3A34;" width="16" height="16"/>
	<rect x="32" y="320" style="fill:#3F3A34;" width="16" height="16"/>
	<rect x="448" y="192" style="fill:#3F3A34;" width="16" height="16"/>
	<rect x="448" y="224" style="fill:#3F3A34;" width="16" height="16"/>
	<rect x="448" y="256" style="fill:#3F3A34;" width="16" height="16"/>
	<rect x="448" y="288" style="fill:#3F3A34;" width="16" height="16"/>
</g>
<g>
</g>
<g>
</g>
<g>
</g>
<g>
</g>
<g>
</g>
<g>
</g>
<g>
</g>
<g>
</g>
<g>
</g>
<g>
</g>
<g>
</g>
<g>
</g>
<g>
</g>
<g>
</g>
<g>
</g>
</svg>
