<?xml version="1.0" encoding="iso-8859-1"?>
<!-- Generator: Adobe Illustrator 19.0.0, SVG Export Plug-In . SVG Version: 6.00 Build 0)  -->
<svg xmlns="http://www.w3.org/2000/svg" xmlns:xlink="http://www.w3.org/1999/xlink" version="1.1" id="Layer_1" x="0px" y="0px" viewBox="0 0 496 496" style="enable-background:new 0 0 496 496;" xml:space="preserve">
<rect x="8" y="104" style="fill:#FF6E6E;" width="480" height="288"/>
<rect x="456" y="104" style="fill:#E56565;" width="32" height="288"/>
<rect x="48" y="232" style="fill:#EFE7E4;" width="40" height="160"/>
<rect x="72" y="232" style="fill:#D8D1D0;" width="16" height="160"/>
<g>
	<rect x="88" y="232" style="fill:#EFE7E4;" width="40" height="160"/>
	<rect x="128" y="232" style="fill:#EFE7E4;" width="40" height="160"/>
</g>
<g>
	<rect x="112" y="232" style="fill:#D8D1D0;" width="16" height="160"/>
	<rect x="152" y="232" style="fill:#D8D1D0;" width="16" height="160"/>
</g>
<rect x="168" y="232" style="fill:#EFE7E4;" width="40" height="160"/>
<rect x="192" y="232" style="fill:#D8D1D0;" width="16" height="160"/>
<rect x="208" y="232" style="fill:#EFE7E4;" width="40" height="160"/>
<rect x="232" y="232" style="fill:#D8D1D0;" width="16" height="160"/>
<rect x="248" y="232" style="fill:#EFE7E4;" width="40" height="160"/>
<rect x="272" y="232" style="fill:#D8D1D0;" width="16" height="160"/>
<rect x="288" y="232" style="fill:#EFE7E4;" width="40" height="160"/>
<rect x="312" y="232" style="fill:#D8D1D0;" width="16" height="160"/>
<rect x="328" y="232" style="fill:#EFE7E4;" width="40" height="160"/>
<rect x="352" y="232" style="fill:#D8D1D0;" width="16" height="160"/>
<rect x="368" y="232" style="fill:#EFE7E4;" width="40" height="160"/>
<rect x="392" y="232" style="fill:#D8D1D0;" width="16" height="160"/>
<rect x="72" y="232" style="fill:#9B9B9B;" width="32" height="104"/>
<rect x="88" y="232" style="fill:#8C8C8C;" width="16" height="104"/>
<rect x="152" y="232" style="fill:#9B9B9B;" width="32" height="104"/>
<rect x="168" y="232" style="fill:#8C8C8C;" width="16" height="104"/>
<rect x="232" y="232" style="fill:#9B9B9B;" width="32" height="104"/>
<rect x="248" y="232" style="fill:#8C8C8C;" width="16" height="104"/>
<path style="fill:#A8A8A8;" d="M136,104v80c0,8.84,7.16,16,16,16h192c8.84,0,16-7.16,16-16v-80H136z"/>
<g>
	<path style="fill:#9B9B9B;" d="M328,104v80c0,8.84-7.16,16-16,16h32c8.84,0,16-7.16,16-16v-80H328z"/>
	<rect x="312" y="232" style="fill:#9B9B9B;" width="32" height="104"/>
</g>
<rect x="328" y="232" style="fill:#8C8C8C;" width="16" height="104"/>
<rect x="408" y="232" style="fill:#EFE7E4;" width="40" height="160"/>
<rect x="432" y="232" style="fill:#D8D1D0;" width="16" height="160"/>
<rect x="392" y="232" style="fill:#9B9B9B;" width="32" height="104"/>
<rect x="408" y="232" style="fill:#8C8C8C;" width="16" height="104"/>
<g>
	<path style="fill:#3F3A34;" d="M496,400H0V96h496V400z M16,384h464V112H16V384z"/>
	<polygon style="fill:#3F3A34;" points="456,392 440,392 440,240 56,240 56,392 40,392 40,224 456,224  "/>
	<rect x="80" y="336" style="fill:#3F3A34;" width="16" height="56"/>
	<rect x="160" y="336" style="fill:#3F3A34;" width="16" height="56"/>
	<rect x="240" y="336" style="fill:#3F3A34;" width="16" height="56"/>
	<rect x="320" y="336" style="fill:#3F3A34;" width="16" height="56"/>
	<rect x="400" y="336" style="fill:#3F3A34;" width="16" height="56"/>
	<polygon style="fill:#3F3A34;" points="112,344 64,344 64,232 80,232 80,328 96,328 96,232 112,232  "/>
	<polygon style="fill:#3F3A34;" points="192,344 144,344 144,232 160,232 160,328 176,328 176,232 192,232  "/>
	<polygon style="fill:#3F3A34;" points="272,344 224,344 224,232 240,232 240,328 256,328 256,232 272,232  "/>
	<polygon style="fill:#3F3A34;" points="352,344 304,344 304,232 320,232 320,328 336,328 336,232 352,232  "/>
	<polygon style="fill:#3F3A34;" points="432,344 384,344 384,312 400,312 400,328 416,328 416,232 432,232  "/>
	<rect x="384" y="232" style="fill:#3F3A34;" width="16" height="64"/>
	<rect x="120" y="272" style="fill:#3F3A34;" width="16" height="120"/>
	<rect x="120" y="232" style="fill:#3F3A34;" width="16" height="24"/>
	<rect x="200" y="232" style="fill:#3F3A34;" width="16" height="160"/>
	<rect x="280" y="232" style="fill:#3F3A34;" width="16" height="160"/>
	<rect x="360" y="232" style="fill:#3F3A34;" width="16" height="160"/>
	
		<rect x="398.056" y="168.001" transform="matrix(-0.7071 0.7071 -0.7071 -0.7071 861.9142 -5.0141)" style="fill:#3F3A34;" width="67.879" height="16"/>
	
		<rect x="382.053" y="152.001" transform="matrix(-0.7071 0.7071 -0.7071 -0.7071 823.2813 -21.0118)" style="fill:#3F3A34;" width="67.879" height="16"/>
	
		<rect x="388.68" y="135.998" transform="matrix(-0.7071 0.7071 -0.7071 -0.7071 784.6512 -37.0164)" style="fill:#3F3A34;" width="22.624" height="16"/>
	
		<rect x="436.704" y="183.976" transform="matrix(-0.7071 0.7071 -0.7071 -0.7071 900.5589 10.9278)" style="fill:#3F3A34;" width="22.624" height="16"/>
	
		<rect x="46.069" y="168.005" transform="matrix(-0.7071 0.7071 -0.7071 -0.7071 261.0367 243.8839)" style="fill:#3F3A34;" width="67.879" height="16"/>
	
		<rect x="30.057" y="152.005" transform="matrix(-0.7071 0.7071 -0.7071 -0.7071 222.3902 227.8918)" style="fill:#3F3A34;" width="67.879" height="16"/>
	
		<rect x="36.685" y="136.002" transform="matrix(-0.7071 0.7071 -0.7071 -0.7071 183.7602 211.8873)" style="fill:#3F3A34;" width="22.624" height="16"/>
	
		<rect x="84.687" y="184.002" transform="matrix(-0.7071 0.7071 -0.7071 -0.7071 299.6451 259.8861)" style="fill:#3F3A34;" width="22.624" height="16"/>
	<path style="fill:#3F3A34;" d="M344,208H152c-13.232,0-24-10.768-24-24v-80h16v80c0,4.416,3.592,8,8,8h192c4.408,0,8-3.584,8-8v-80   h16v80C368,197.232,357.232,208,344,208z"/>
</g>
<circle style="fill:#FFCB57;" cx="200" cy="152" r="16"/>
<g>
	<path style="fill:#3F3A34;" d="M200,176c-13.232,0-24-10.768-24-24s10.768-24,24-24s24,10.768,24,24S213.232,176,200,176z M200,144   c-4.408,0-8,3.584-8,8s3.592,8,8,8s8-3.584,8-8S204.408,144,200,144z"/>
	<rect x="240" y="128" style="fill:#3F3A34;" width="32" height="16"/>
	<rect x="288" y="128" style="fill:#3F3A34;" width="32" height="16"/>
	<rect x="240" y="160" style="fill:#3F3A34;" width="32" height="16"/>
	<rect x="288" y="160" style="fill:#3F3A34;" width="32" height="16"/>
</g>
<g>
</g>
<g>
</g>
<g>
</g>
<g>
</g>
<g>
</g>
<g>
</g>
<g>
</g>
<g>
</g>
<g>
</g>
<g>
</g>
<g>
</g>
<g>
</g>
<g>
</g>
<g>
</g>
<g>
</g>
</svg>
