<?xml version="1.0" encoding="iso-8859-1"?>
<!-- Generator: Adobe Illustrator 19.0.0, SVG Export Plug-In . SVG Version: 6.00 Build 0)  -->
<svg xmlns="http://www.w3.org/2000/svg" xmlns:xlink="http://www.w3.org/1999/xlink" version="1.1" id="Layer_1" x="0px" y="0px" viewBox="0 0 496 496" style="enable-background:new 0 0 496 496;" xml:space="preserve">
<path style="fill:#FFCB57;" d="M484.2,440.92L323.344,141.144C316.36,128.128,302.776,120,288,120s-28.36,8.128-35.344,21.144  L91.8,440.92c-2.496,4.648-3.8,9.84-3.8,15.112C88,473.688,102.312,488,119.968,488H456.04c17.648,0,31.96-14.312,31.96-31.968  C488,450.76,486.696,445.568,484.2,440.92z M119.968,456l160.88-299.72c1.424-2.64,4.16-4.28,7.152-4.28s5.728,1.64,7.144,4.272  L455.976,456H119.968z"/>
<path style="fill:#F2BE55;" d="M484.2,440.92L323.344,141.144C316.36,128.128,302.776,120,288,120c-4.144,0-8.168,0.696-12,1.904  c9.848,3.096,18.32,9.872,23.344,19.24L460.2,440.92c2.496,4.648,3.8,9.84,3.8,15.112C464,473.688,449.688,488,432.032,488h24  C473.688,488,488,473.688,488,456.032C488,450.76,486.696,445.568,484.2,440.92z"/>
<path style="fill:#3F3A34;" d="M456.032,496H119.968C97.928,496,80,478.072,80,456.032c0-6.576,1.64-13.112,4.752-18.896  L245.608,137.36C254,121.72,270.24,112,288,112s34,9.72,42.392,25.368l160.856,299.776c3.112,5.784,4.752,12.32,4.752,18.888  C496,478.072,478.072,496,456.032,496z M288,128c-11.848,0-22.696,6.488-28.296,16.928L98.84,444.704  c-1.856,3.472-2.84,7.392-2.84,11.328C96,469.248,106.752,480,119.968,480h336.064C469.248,480,480,469.248,480,456.032  c0-3.944-0.984-7.856-2.84-11.336L316.296,144.928C310.696,134.488,299.848,128,288,128z M469.352,464h-362.76L273.8,152.496  c2.824-5.24,8.264-8.496,14.2-8.496s11.376,3.256,14.184,8.488l49.208,91.712l-14.096,7.56l-49.208-91.712L133.352,448H442.6  l-96.16-179.208l14.096-7.56L469.352,464z"/>
<rect x="8" y="8" style="fill:#EFE7E4;" width="32" height="480"/>
<rect x="24" y="8" style="fill:#D8D1D0;" width="16" height="480"/>
<g>
	<path style="fill:#3F3A34;" d="M48,496H0V0h48V496z M16,480h16V16H16V480z"/>
	<path style="fill:#3F3A34;" d="M288,192c-17.648,0-32-14.352-32-32V32c0-17.648,14.352-32,32-32s32,14.352,32,32v96h-16V32   c0-8.824-7.176-16-16-16s-16,7.176-16,16v128c0,8.824,7.176,16,16,16c4.512,0,8.72-1.904,11.832-5.36l11.872,10.72   C305.608,188.12,296.968,192,288,192z"/>
	<rect x="8" y="48" style="fill:#3F3A34;" width="32" height="16"/>
</g>
<g>
</g>
<g>
</g>
<g>
</g>
<g>
</g>
<g>
</g>
<g>
</g>
<g>
</g>
<g>
</g>
<g>
</g>
<g>
</g>
<g>
</g>
<g>
</g>
<g>
</g>
<g>
</g>
<g>
</g>
</svg>
