<?xml version="1.0" encoding="iso-8859-1"?>
<!-- Generator: Adobe Illustrator 19.0.0, SVG Export Plug-In . SVG Version: 6.00 Build 0)  -->
<svg xmlns="http://www.w3.org/2000/svg" xmlns:xlink="http://www.w3.org/1999/xlink" version="1.1" id="Layer_1" x="0px" y="0px" viewBox="0 0 496 496" style="enable-background:new 0 0 496 496;" xml:space="preserve">
<path style="fill:#FF6E6E;" d="M248,488c48,0,104-16,104-80c0-72-40-80-40-112c0-24,24-24,24-56c0-48-64-56-88-56s-88,8-88,56  c0,32,24,32,24,56c0,32-40,40-40,112C144,472,200,488,248,488z"/>
<path style="fill:#E56565;" d="M312,296c0-24,24-24,24-56c0-48-64-56-88-56c-4.256,0-9.808,0.272-16,0.952  c28.728,3.16,72,15.56,72,55.048c0,32-24,32-24,56c0,32,40,40,40,112c0,56.984-44.384,75.872-88,79.336  c5.376,0.432,10.736,0.664,16,0.664c48,0,104-16,104-80C352,336,312,328,312,296z"/>
<path style="fill:#3F3A34;" d="M248,496c-71.176,0-112-32.08-112-88c0-45.768,15.84-67.944,27.416-84.144  C170.72,313.632,176,306.232,176,296c0-8.16-3.488-12.176-8.76-18.264C160.456,269.888,152,260.136,152,240c0-50.52,60.344-64,96-64  s96,13.48,96,64c0,20.136-8.456,29.888-15.24,37.736C323.488,283.824,320,287.84,320,296c0,10.232,5.28,17.632,12.584,27.856  C344.16,340.056,360,362.232,360,408C360,463.92,319.176,496,248,496z M248,192c-3.264,0-80,0.544-80,48  c0,14.168,5.256,20.232,11.336,27.256C185.272,274.112,192,281.88,192,296c0,15.368-7.56,25.952-15.568,37.168  C164.976,349.192,152,367.368,152,408c0,62.648,60.152,72,96,72s96-9.352,96-72c0-40.632-12.976-58.808-24.432-74.832  C311.56,321.952,304,311.368,304,296c0-14.12,6.728-21.888,12.664-28.744C322.744,260.232,328,254.168,328,240  C328,192.544,251.264,192,248,192z"/>
<polygon style="fill:#A8A8A8;" points="264,232 232,232 232,64 224,56 224,8 272,8 272,56 264,64 "/>
<polygon style="fill:#9B9B9B;" points="256,8 256,56 248,64 248,232 264,232 264,64 272,56 272,8 "/>
<path style="fill:#3F3A34;" d="M272,240h-48V67.312l-8-8V0h64v59.312l-8,8V240z M240,224h16V60.688l8-8V16h-32v36.688l8,8V224z"/>
<circle style="fill:#A8A8A8;" cx="248" cy="256" r="32"/>
<path style="fill:#9B9B9B;" d="M248,224c-4.248,0-8.288,0.872-12,2.376c11.72,4.752,20,16.2,20,29.624  c0,13.424-8.28,24.872-20,29.624c3.712,1.504,7.752,2.376,12,2.376c17.672,0,32-14.328,32-32S265.672,224,248,224z"/>
<path style="fill:#3F3A34;" d="M248,296c-22.056,0-40-17.944-40-40s17.944-40,40-40s40,17.944,40,40S270.056,296,248,296z M248,232  c-13.232,0-24,10.768-24,24s10.768,24,24,24s24-10.768,24-24S261.232,232,248,232z"/>
<rect x="208" y="360" style="fill:#FFCB57;" width="80" height="32"/>
<rect x="264" y="360" style="fill:#F2BE55;" width="24" height="32"/>
<path style="fill:#3F3A34;" d="M296,400h-96v-48h96V400z M216,384h64v-16h-64V384z"/>
<g>
</g>
<g>
</g>
<g>
</g>
<g>
</g>
<g>
</g>
<g>
</g>
<g>
</g>
<g>
</g>
<g>
</g>
<g>
</g>
<g>
</g>
<g>
</g>
<g>
</g>
<g>
</g>
<g>
</g>
</svg>
