<?xml version="1.0" encoding="iso-8859-1"?>
<!-- Generator: Adobe Illustrator 19.0.0, SVG Export Plug-In . SVG Version: 6.00 Build 0)  -->
<svg xmlns="http://www.w3.org/2000/svg" xmlns:xlink="http://www.w3.org/1999/xlink" version="1.1" id="Layer_1" x="0px" y="0px" viewBox="0 0 496 496" style="enable-background:new 0 0 496 496;" xml:space="preserve">
<g>
	<rect x="88" y="8" style="fill:#B5B5B5;" width="32" height="480"/>
	<rect x="296" y="8" style="fill:#B5B5B5;" width="32" height="480"/>
</g>
<g>
	<path style="fill:#3F3A34;" d="M128,496H80V0h48V496z M96,480h16V16H96V480z"/>
	<path style="fill:#3F3A34;" d="M336,496h-48V0h48V496z M304,480h16V16h-16V480z"/>
</g>
<rect x="440" y="32" style="fill:#A8A8A8;" width="32" height="456"/>
<rect x="456" y="32" style="fill:#9B9B9B;" width="16" height="456"/>
<path style="fill:#3F3A34;" d="M480,496h-48V24h48V496z M448,480h16V40h-16V480z"/>
<rect x="8" y="392" style="fill:#FF6E6E;" width="400" height="64"/>
<rect x="8" y="424" style="fill:#E56565;" width="400" height="32"/>
<rect x="24" y="296" style="fill:#FFCB57;" width="368" height="64"/>
<rect x="24" y="328" style="fill:#F2BE55;" width="368" height="32"/>
<g>
	<path style="fill:#3F3A34;" d="M416,464H0v-80h416V464z M16,448h384v-48H16V448z"/>
	<path style="fill:#3F3A34;" d="M400,368H16v-80h384V368z M32,352h352v-48H32V352z"/>
</g>
<rect x="40" y="200" style="fill:#98CE59;" width="336" height="64"/>
<rect x="40" y="232" style="fill:#91BF55;" width="336" height="32"/>
<path style="fill:#3F3A34;" d="M384,272H32v-80h352V272z M48,256h320v-48H48V256z"/>
<rect x="56" y="104" style="fill:#66ADDD;" width="304" height="64"/>
<rect x="56" y="136" style="fill:#5B9DC1;" width="304" height="32"/>
<path style="fill:#3F3A34;" d="M368,176H48V96h320V176z M64,160h288v-48H64V160z"/>
<rect x="72" y="8" style="fill:#EFE7E4;" width="272" height="64"/>
<rect x="72" y="40" style="fill:#D8D1D0;" width="272" height="32"/>
<path style="fill:#3F3A34;" d="M352,80H64V0h288V80z M80,64h256V16H80V64z"/>
<circle style="fill:#B5B5B5;" cx="456" cy="40" r="32"/>
<path style="fill:#9B9B9B;" d="M456,8c-4.248,0-8.288,0.872-12,2.376c11.72,4.752,20,16.2,20,29.624s-8.28,24.872-20,29.624  c3.712,1.504,7.752,2.376,12,2.376c17.672,0,32-14.328,32-32S473.672,8,456,8z"/>
<path style="fill:#3F3A34;" d="M456,80c-22.056,0-40-17.944-40-40s17.944-40,40-40s40,17.944,40,40S478.056,80,456,80z M456,16  c-13.232,0-24,10.768-24,24s10.768,24,24,24s24-10.768,24-24S469.232,16,456,16z"/>
<circle style="fill:#EFE7E4;" cx="104" cy="424" r="16"/>
<path style="fill:#3F3A34;" d="M104,448c-13.232,0-24-10.768-24-24s10.768-24,24-24s24,10.768,24,24S117.232,448,104,448z M104,416  c-4.408,0-8,3.592-8,8s3.592,8,8,8s8-3.592,8-8S108.408,416,104,416z"/>
<circle style="fill:#EFE7E4;" cx="312" cy="424" r="16"/>
<path style="fill:#3F3A34;" d="M312,448c-13.232,0-24-10.768-24-24s10.768-24,24-24s24,10.768,24,24S325.232,448,312,448z M312,416  c-4.408,0-8,3.592-8,8s3.592,8,8,8s8-3.592,8-8S316.408,416,312,416z"/>
<circle style="fill:#EFE7E4;" cx="104" cy="328" r="16"/>
<path style="fill:#3F3A34;" d="M104,352c-13.232,0-24-10.768-24-24s10.768-24,24-24s24,10.768,24,24S117.232,352,104,352z M104,320  c-4.408,0-8,3.592-8,8s3.592,8,8,8s8-3.592,8-8S108.408,320,104,320z"/>
<circle style="fill:#EFE7E4;" cx="312" cy="328" r="16"/>
<path style="fill:#3F3A34;" d="M312,352c-13.232,0-24-10.768-24-24s10.768-24,24-24s24,10.768,24,24S325.232,352,312,352z M312,320  c-4.408,0-8,3.592-8,8s3.592,8,8,8s8-3.592,8-8S316.408,320,312,320z"/>
<circle style="fill:#EFE7E4;" cx="104" cy="232" r="16"/>
<path style="fill:#3F3A34;" d="M104,256c-13.232,0-24-10.768-24-24s10.768-24,24-24s24,10.768,24,24S117.232,256,104,256z M104,224  c-4.408,0-8,3.592-8,8s3.592,8,8,8s8-3.592,8-8S108.408,224,104,224z"/>
<circle style="fill:#EFE7E4;" cx="312" cy="232" r="16"/>
<path style="fill:#3F3A34;" d="M312,256c-13.232,0-24-10.768-24-24s10.768-24,24-24s24,10.768,24,24S325.232,256,312,256z M312,224  c-4.408,0-8,3.592-8,8s3.592,8,8,8s8-3.592,8-8S316.408,224,312,224z"/>
<circle style="fill:#EFE7E4;" cx="104" cy="136" r="16"/>
<path style="fill:#3F3A34;" d="M104,160c-13.232,0-24-10.768-24-24s10.768-24,24-24s24,10.768,24,24S117.232,160,104,160z M104,128  c-4.408,0-8,3.592-8,8s3.592,8,8,8s8-3.592,8-8S108.408,128,104,128z"/>
<circle style="fill:#EFE7E4;" cx="312" cy="136" r="16"/>
<path style="fill:#3F3A34;" d="M312,160c-13.232,0-24-10.768-24-24s10.768-24,24-24s24,10.768,24,24S325.232,160,312,160z M312,128  c-4.408,0-8,3.592-8,8s3.592,8,8,8s8-3.592,8-8S316.408,128,312,128z"/>
<circle style="fill:#EFE7E4;" cx="104" cy="40" r="16"/>
<path style="fill:#3F3A34;" d="M104,64c-13.232,0-24-10.768-24-24s10.768-24,24-24s24,10.768,24,24S117.232,64,104,64z M104,32  c-4.408,0-8,3.592-8,8s3.592,8,8,8s8-3.592,8-8S108.408,32,104,32z"/>
<circle style="fill:#EFE7E4;" cx="312" cy="40" r="16"/>
<path style="fill:#3F3A34;" d="M312,64c-13.232,0-24-10.768-24-24s10.768-24,24-24s24,10.768,24,24S325.232,64,312,64z M312,32  c-4.408,0-8,3.592-8,8s3.592,8,8,8s8-3.592,8-8S316.408,32,312,32z"/>
<g>
</g>
<g>
</g>
<g>
</g>
<g>
</g>
<g>
</g>
<g>
</g>
<g>
</g>
<g>
</g>
<g>
</g>
<g>
</g>
<g>
</g>
<g>
</g>
<g>
</g>
<g>
</g>
<g>
</g>
</svg>
