<?xml version="1.0" encoding="iso-8859-1"?>
<!-- Generator: Adobe Illustrator 19.0.0, SVG Export Plug-In . SVG Version: 6.00 Build 0)  -->
<svg xmlns="http://www.w3.org/2000/svg" xmlns:xlink="http://www.w3.org/1999/xlink" version="1.1" id="Layer_1" x="0px" y="0px" viewBox="0 0 496 496" style="enable-background:new 0 0 496 496;" xml:space="preserve">
<g>
	<polygon style="fill:#FFCB57;" points="112,440 88,64 56,64 80,440  "/>
	<path style="fill:#FFCB57;" d="M360.312,128h-9.072c-15.096,0-29.288-6.648-38.944-18.24C296.536,90.848,273.384,80,248.76,80H80   v32h168.76c15.096,0,29.288,6.648,38.944,18.24c15.76,18.912,38.912,29.76,63.536,29.76h9.072c35.12,0,63.688,28.568,63.688,63.688   c0,20.168-9.704,39.352-25.952,51.304L173.632,440H56v48h144v-27.672l217-159.56c24.424-17.952,39-46.776,39-77.08   C456,170.92,413.08,128,360.312,128z"/>
</g>
<path style="fill:#F2BE55;" d="M360.312,128h-9.072c-15.096,0-29.288-6.648-38.944-18.24C296.536,90.848,273.384,80,248.76,80h-24  c24.624,0,47.784,10.84,63.536,29.76c9.656,11.592,23.848,18.24,38.944,18.24h9.072C389.08,128,432,170.92,432,223.688  c0,30.304-14.576,59.128-39,77.088L176,460.328V488h24v-27.672l217-159.56c24.424-17.952,39-46.776,39-77.08  C456,170.92,413.08,128,360.312,128z"/>
<path style="fill:#3F3A34;" d="M208,496H48v-64h123.008l222.304-163.456c14.2-10.448,22.688-27.216,22.688-44.856  C416,192.984,391.016,168,360.312,168h-9.072c-27.008,0-52.408-11.896-69.68-32.64c-8.136-9.76-20.088-15.36-32.8-15.36H96v-16  h152.76c17.48,0,33.912,7.696,45.096,21.128C308.08,142.2,329,152,351.24,152h9.072C399.84,152,432,184.16,432,223.688  c0,22.704-10.92,44.296-29.208,57.752L176.256,448H64v32h128v-23.72l220.264-161.952C434.64,277.864,448,251.464,448,223.688  C448,175.336,408.664,136,360.312,136h-9.072c-17.48,0-33.912-7.696-45.096-21.128C291.92,97.8,271,88,248.76,88H88V72h160.76  c27.008,0,52.408,11.896,69.68,32.64c8.136,9.76,20.088,15.36,32.8,15.36h9.072C417.488,120,464,166.512,464,223.688  c0,32.84-15.8,64.072-42.264,83.528L208,464.376V496z"/>
<circle style="fill:#FFCB57;" cx="72" cy="40" r="32"/>
<path style="fill:#F2BE55;" d="M72,8c-4.248,0-8.288,0.872-12,2.376C71.72,15.128,80,26.576,80,40s-8.28,24.872-20,29.624  C63.712,71.128,67.752,72,72,72c17.672,0,32-14.328,32-32S89.672,8,72,8z"/>
<g>
	<path style="fill:#3F3A34;" d="M72,80c-22.056,0-40-17.944-40-40S49.944,0,72,0s40,17.944,40,40S94.056,80,72,80z M72,16   c-13.232,0-24,10.768-24,24s10.768,24,24,24s24-10.768,24-24S85.232,16,72,16z"/>
	
		<rect x="60.003" y="63.617" transform="matrix(-0.998 0.0637 -0.0637 -0.998 151.9213 499.2021)" style="fill:#3F3A34;" width="16" height="376.812"/>
	
		<rect x="92.003" y="63.619" transform="matrix(-0.998 0.0637 -0.0637 -0.998 215.8564 497.1669)" style="fill:#3F3A34;" width="16" height="376.812"/>
	
		<rect x="143.109" y="416.318" transform="matrix(-0.9973 0.073 -0.073 -0.9973 333.0724 844.2061)" style="fill:#3F3A34;" width="15.999" height="23.743"/>
	
		<rect x="130.54" y="111.61" transform="matrix(-0.9973 0.073 -0.073 -0.9973 295.4039 501.3735)" style="fill:#3F3A34;" width="15.999" height="288.951"/>
	
		<rect x="171.526" y="111.566" transform="matrix(-0.9973 0.073 -0.073 -0.9973 378.2525 525.3289)" style="fill:#3F3A34;" width="15.999" height="316.022"/>
	
		<rect x="210.508" y="111.606" transform="matrix(-0.9973 0.073 -0.073 -0.9973 455.0941 494.649)" style="fill:#3F3A34;" width="15.999" height="288.071"/>
	
		<rect x="249.519" y="111.643" transform="matrix(-0.9973 0.073 -0.073 -0.9973 531.9921 463.8975)" style="fill:#3F3A34;" width="15.999" height="260.056"/>
	
		<rect x="289.194" y="132.132" transform="matrix(-0.9973 0.073 -0.073 -0.9973 610.9624 453.5101)" style="fill:#3F3A34;" width="15.999" height="211.577"/>
	
		<rect x="330.633" y="199.14" transform="matrix(-0.9973 0.073 -0.073 -0.9973 695.153 489.4214)" style="fill:#3F3A34;" width="15.999" height="116.548"/>
	
		<rect x="324.292" y="157.557" transform="matrix(-0.9973 0.0729 -0.0729 -0.9973 676.1606 317.1605)" style="fill:#3F3A34;" width="15.999" height="26.727"/>
	
		<rect x="368.228" y="161.349" transform="matrix(-0.9973 0.073 -0.073 -0.9973 767.8452 421.0444)" style="fill:#3F3A34;" width="15.999" height="126.412"/>
</g>
<g>
</g>
<g>
</g>
<g>
</g>
<g>
</g>
<g>
</g>
<g>
</g>
<g>
</g>
<g>
</g>
<g>
</g>
<g>
</g>
<g>
</g>
<g>
</g>
<g>
</g>
<g>
</g>
<g>
</g>
</svg>
