<?xml version="1.0" encoding="iso-8859-1"?>
<!-- Generator: Adobe Illustrator 19.0.0, SVG Export Plug-In . SVG Version: 6.00 Build 0)  -->
<svg xmlns="http://www.w3.org/2000/svg" xmlns:xlink="http://www.w3.org/1999/xlink" version="1.1" id="Layer_1" x="0px" y="0px" viewBox="0 0 496 496" style="enable-background:new 0 0 496 496;" xml:space="preserve">
<circle style="fill:#FFCB57;" cx="280" cy="248" r="208"/>
<path style="fill:#F2BE55;" d="M280,40c-6.752,0-13.416,0.352-20,0.976C365.488,51.048,448,139.872,448,248  s-82.512,196.952-188,207.024c6.584,0.624,13.248,0.976,20,0.976c114.872,0,208-93.128,208-208S394.872,40,280,40z"/>
<path style="fill:#3F3A34;" d="M280,464c-119.104,0-216-96.896-216-216S160.896,32,280,32s216,96.896,216,216S399.104,464,280,464z   M280,48C169.72,48,80,137.72,80,248s89.72,200,200,200s200-89.72,200-200S390.28,48,280,48z"/>
<circle style="fill:#FFCB57;" cx="216" cy="248" r="208"/>
<path style="fill:#F2BE55;" d="M216,40c-6.752,0-13.416,0.352-20,0.976C301.488,51.048,384,139.872,384,248  s-82.512,196.952-188,207.024c6.584,0.624,13.248,0.976,20,0.976c114.872,0,208-93.128,208-208S330.872,40,216,40z"/>
<path style="fill:#3F3A34;" d="M216,464C96.896,464,0,367.104,0,248S96.896,32,216,32s216,96.896,216,216S335.104,464,216,464z   M216,48C105.72,48,16,137.72,16,248s89.72,200,200,200s200-89.72,200-200S326.28,48,216,48z"/>
<circle style="fill:#F2BE55;" cx="216" cy="248" r="80"/>
<path style="fill:#D8A64E;" d="M216,168c-5.48,0-10.832,0.56-16,1.608c36.512,7.416,64,39.688,64,78.392s-27.488,70.976-64,78.392  c5.168,1.048,10.52,1.608,16,1.608c44.184,0,80-35.816,80-80S260.184,168,216,168z"/>
<g>
	<path style="fill:#3F3A34;" d="M216,336c-48.52,0-88-39.48-88-88s39.48-88,88-88s88,39.48,88,88S264.52,336,216,336z M216,176   c-39.696,0-72,32.296-72,72s32.304,72,72,72s72-32.296,72-72S255.696,176,216,176z"/>
	<path style="fill:#3F3A34;" d="M384,248h-16c0-72-51.136-134.64-121.592-148.944l3.184-15.688C327.472,99.184,384,168.424,384,248z   "/>
	<path style="fill:#3F3A34;" d="M231.208,96.768C226.096,96.256,220.984,96,216,96V80c5.504,0,11.16,0.28,16.792,0.84   L231.208,96.768z"/>
</g>
<path style="fill:#EFE7E4;" d="M158.4,186.84c-4.216-1.872-8.784-2.84-13.4-2.84c-18.224,0-33,14.776-33,33v31v31  c0,18.224,14.776,33,33,33c4.616,0,9.184-0.968,13.4-2.848L224,280v-64L158.4,186.84z M192,259.2l-46.6,20.712L145,280  c-0.552,0-1-0.448-1-1v-62c0-0.552,0.448-1,1-1l47,20.824V259.2z"/>
<polygon style="fill:#D8D1D0;" points="192,236.824 192,259.2 192,294.224 224,280 224,216 192,201.776 "/>
<path style="fill:#3F3A34;" d="M145,320c-22.608,0-41-18.392-41-41v-62c0-22.608,18.392-41,41-41c5.776,0,11.376,1.184,16.656,3.528  L232,210.808V285.2l-70.352,31.272C156.368,318.816,150.768,320,145,320z M145,192c-13.784,0-25,11.216-25,25v62  c0,13.784,11.216,25,25,25c3.52,0,6.936-0.728,10.152-2.16L216,274.808V221.2l-60.848-27.04C151.936,192.728,148.512,192,145,192z   M145,288c-4.96,0-9-4.04-9-9v-62c0-4.96,4.04-9,9-9h1.688L200,231.616V264.4l-53.752,23.512L145,288z M152,227.848v40.376  l32-14.216v-11.984L152,227.848z"/>
<g>
</g>
<g>
</g>
<g>
</g>
<g>
</g>
<g>
</g>
<g>
</g>
<g>
</g>
<g>
</g>
<g>
</g>
<g>
</g>
<g>
</g>
<g>
</g>
<g>
</g>
<g>
</g>
<g>
</g>
</svg>
