<?xml version="1.0" encoding="iso-8859-1"?>
<!-- Generator: Adobe Illustrator 19.0.0, SVG Export Plug-In . SVG Version: 6.00 Build 0)  -->
<svg xmlns="http://www.w3.org/2000/svg" xmlns:xlink="http://www.w3.org/1999/xlink" version="1.1" id="Layer_1" x="0px" y="0px" viewBox="0 0 496 496" style="enable-background:new 0 0 496 496;" xml:space="preserve">
<rect x="456" y="144" style="fill:#A8A8A8;" width="32" height="208"/>
<rect x="472" y="144" style="fill:#9B9B9B;" width="16" height="208"/>
<polygon style="fill:#A8A8A8;" points="24,232 24,264 312,270.128 312,225.872 "/>
<path style="fill:#FFCB57;" d="M456,144l-18.768,26.816c-23.4,33.432-61.344,53.696-102.136,54.568L312,225.872v44.256l23.088,0.488  c40.8,0.872,78.736,21.136,102.136,54.568L456,352V144z"/>
<path style="fill:#F2BE55;" d="M432,177.728v140.544c1.808,2.24,3.568,4.536,5.232,6.912L456,352V144l-18.768,26.816  C435.568,173.192,433.808,175.488,432,177.728z"/>
<g>
	<path style="fill:#3F3A34;" d="M496,360h-44.168l-21.16-30.224c-21.856-31.224-57.656-50.352-95.752-51.16L16,271.832v-47.664   l318.92-6.784c38.104-0.816,73.896-19.936,95.752-51.16L451.832,136H496V360z M460.168,344H480V152h-19.832l-16.376,23.4   c-24.768,35.384-65.336,57.056-108.52,57.984L32,239.832v16.336l303.264,6.448c43.176,0.92,83.744,22.592,108.52,57.984   L460.168,344z"/>
	<rect y="240" style="fill:#3F3A34;" width="24" height="16"/>
	<rect x="448" y="120" style="fill:#3F3A34;" width="16" height="256"/>
	<rect x="304" y="200" style="fill:#3F3A34;" width="16" height="96"/>
	<rect x="272" y="200" style="fill:#3F3A34;" width="16" height="96"/>
	<rect x="48" y="208" style="fill:#3F3A34;" width="16" height="80"/>
</g>
<g>
</g>
<g>
</g>
<g>
</g>
<g>
</g>
<g>
</g>
<g>
</g>
<g>
</g>
<g>
</g>
<g>
</g>
<g>
</g>
<g>
</g>
<g>
</g>
<g>
</g>
<g>
</g>
<g>
</g>
</svg>
