<?xml version="1.0" encoding="iso-8859-1"?>
<!-- Generator: Adobe Illustrator 19.0.0, SVG Export Plug-In . SVG Version: 6.00 Build 0)  -->
<svg xmlns="http://www.w3.org/2000/svg" xmlns:xlink="http://www.w3.org/1999/xlink" version="1.1" id="Layer_1" x="0px" y="0px" viewBox="0 0 496 496" style="enable-background:new 0 0 496 496;" xml:space="preserve">
<rect x="8" y="152" style="fill:#FFCB57;" width="480" height="144"/>
<rect x="464" y="152" style="fill:#F2BE55;" width="24" height="144"/>
<path style="fill:#3F3A34;" d="M496,304H0V144h496V304z M16,288h464V160H16V288z"/>
<rect x="408" y="200" style="fill:#A8A8A8;" width="48" height="48"/>
<rect x="432" y="200" style="fill:#9B9B9B;" width="24" height="48"/>
<rect x="40" y="200" style="fill:#A8A8A8;" width="48" height="48"/>
<rect x="64" y="200" style="fill:#9B9B9B;" width="24" height="48"/>
<rect x="88" y="184" style="fill:#A8A8A8;" width="320" height="80"/>
<rect x="384" y="184" style="fill:#9B9B9B;" width="24" height="80"/>
<g>
	<path style="fill:#3F3A34;" d="M416,272H80v-96h336V272z M96,256h304v-64H96V256z"/>
	<polygon style="fill:#3F3A34;" points="88,256 32,256 32,192 88,192 88,208 48,208 48,240 88,240  "/>
	<rect x="56" y="216" style="fill:#3F3A34;" width="16" height="16"/>
	<polygon style="fill:#3F3A34;" points="464,256 408,256 408,240 448,240 448,208 408,208 408,192 464,192  "/>
	<rect x="424" y="216" style="fill:#3F3A34;" width="16" height="16"/>
</g>
<rect x="8" y="296" style="fill:#FFCB57;" width="480" height="48"/>
<rect x="464" y="296" style="fill:#F2BE55;" width="24" height="48"/>
<rect x="80" y="296" style="fill:#A8A8A8;" width="336" height="48"/>
<g>
	<rect x="400" y="296" style="fill:#9B9B9B;" width="16" height="48"/>
	<rect x="352" y="296" style="fill:#9B9B9B;" width="16" height="48"/>
	<rect x="304" y="296" style="fill:#9B9B9B;" width="16" height="48"/>
	<rect x="256" y="296" style="fill:#9B9B9B;" width="16" height="48"/>
	<rect x="208" y="296" style="fill:#9B9B9B;" width="16" height="48"/>
	<rect x="160" y="296" style="fill:#9B9B9B;" width="16" height="48"/>
	<rect x="112" y="296" style="fill:#9B9B9B;" width="16" height="48"/>
</g>
<g>
	<path style="fill:#3F3A34;" d="M496,352H0v-64h496V352z M16,336h464v-32H16V336z"/>
	<rect x="72" y="296" style="fill:#3F3A34;" width="16" height="48"/>
	<rect x="120" y="296" style="fill:#3F3A34;" width="16" height="48"/>
	<rect x="168" y="296" style="fill:#3F3A34;" width="16" height="48"/>
	<rect x="216" y="296" style="fill:#3F3A34;" width="16" height="48"/>
	<rect x="264" y="296" style="fill:#3F3A34;" width="16" height="48"/>
	<rect x="312" y="296" style="fill:#3F3A34;" width="16" height="48"/>
	<rect x="360" y="296" style="fill:#3F3A34;" width="16" height="48"/>
	<rect x="408" y="296" style="fill:#3F3A34;" width="16" height="48"/>
	<rect x="176" y="208" style="fill:#3F3A34;" width="176" height="16"/>
	<rect x="368" y="208" style="fill:#3F3A34;" width="16" height="16"/>
</g>
<g>
</g>
<g>
</g>
<g>
</g>
<g>
</g>
<g>
</g>
<g>
</g>
<g>
</g>
<g>
</g>
<g>
</g>
<g>
</g>
<g>
</g>
<g>
</g>
<g>
</g>
<g>
</g>
<g>
</g>
</svg>
