<?xml version="1.0" encoding="iso-8859-1"?>
<!-- Generator: Adobe Illustrator 19.0.0, SVG Export Plug-In . SVG Version: 6.00 Build 0)  -->
<svg xmlns="http://www.w3.org/2000/svg" xmlns:xlink="http://www.w3.org/1999/xlink" version="1.1" id="Layer_1" x="0px" y="0px" viewBox="0 0 496 496" style="enable-background:new 0 0 496 496;" xml:space="preserve">
<path style="fill:#FF6E6E;" d="M236.032,186.952c-10.456-13.712-24.424-38.528-27.44-76.024C207.92,102.552,201.072,96,192.664,96  h-33.192c-8.32,0-15.392,6.368-15.944,14.672c-2.44,36.616-13.784,55.88-22.176,65.328L236.032,186.952z"/>
<path style="fill:#E56565;" d="M175.24,110.928c2.792,34.672,14.912,58.376,24.992,72.608l35.8,3.416  c-10.456-13.712-24.424-38.528-27.44-76.024C207.92,102.552,201.072,96,192.664,96h-33.192c-0.024,0-0.056,0.008-0.08,0.008  C167.76,96.048,174.568,102.576,175.24,110.928z"/>
<path style="fill:#FF6E6E;" d="M147.352,176H120C58.144,176,8,226.144,8,288l0,0c0,61.856,50.144,112,112,112h27.352  c24.368,0,48.672-2.528,72.512-7.552l221.168-46.56C468.408,340.128,488,315.976,488,288l0,0c0-27.976-19.592-52.128-46.968-57.888  l-221.168-46.56C196.016,178.528,171.72,176,147.352,176z"/>
<path style="fill:#E56565;" d="M441.032,230.112l-221.168-46.56C196.016,178.528,171.72,176,147.352,176H120  c-0.536,0-1.048,0.072-1.576,0.08c23.336,0.208,46.6,2.664,69.44,7.472l221.168,46.56C436.408,235.872,456,260.024,456,288  s-19.592,52.128-46.968,57.888l-221.168,46.56c-22.84,4.808-46.104,7.264-69.44,7.472c0.528,0.008,1.04,0.08,1.576,0.08h27.352  c24.368,0,48.672-2.528,72.512-7.552l221.168-46.56C468.408,340.128,488,315.976,488,288S468.408,235.872,441.032,230.112z"/>
<g>
	<path style="fill:#3F3A34;" d="M147.352,408H120C53.832,408,0,354.168,0,288s53.832-120,120-120h27.352   c24.856,0,49.808,2.592,74.168,7.72l221.168,46.56C473.576,228.792,496,256.432,496,288s-22.424,59.208-53.32,65.72l-221.168,46.56   C197.16,405.408,172.208,408,147.352,408z M120,184c-57.344,0-104,46.656-104,104s46.656,104,104,104h27.352   c23.752,0,47.592-2.488,70.864-7.376l221.168-46.56C462.912,333.104,480,312.056,480,288s-17.088-45.104-40.616-50.064   l-221.168-46.56c-23.272-4.888-47.112-7.376-70.864-7.376H120z"/>
	<path style="fill:#3F3A34;" d="M229.672,191.808c-11.52-15.112-25.912-41.296-29.056-80.232c-0.344-4.32-3.768-7.576-7.952-7.576   h-33.192c-4.192,0-7.688,3.168-7.952,7.192c-2.552,38.328-14.56,59.28-24.176,70.12l-11.968-10.624   c7.968-8.968,17.928-26.744,20.176-60.544C136.368,97.728,146.872,88,159.472,88h33.192c12.592,0,22.872,9.576,23.904,22.28   c2.832,35.072,15.6,58.416,25.824,71.824L229.672,191.808z"/>
</g>
<circle style="fill:#6D6E71;" cx="104" cy="288" r="24"/>
<path style="fill:#575759;" d="M104,264c-2.824,0-5.488,0.576-8,1.472c9.304,3.304,16,12.096,16,22.528s-6.696,19.224-16,22.528  c2.512,0.896,5.176,1.472,8,1.472c13.256,0,24-10.744,24-24S117.256,264,104,264z"/>
<path style="fill:#3F3A34;" d="M104,320c-17.648,0-32-14.352-32-32s14.352-32,32-32s32,14.352,32,32S121.648,320,104,320z M104,272  c-8.824,0-16,7.176-16,16s7.176,16,16,16s16-7.176,16-16S112.824,272,104,272z"/>
<circle style="fill:#6D6E71;" cx="184" cy="288" r="24"/>
<path style="fill:#575759;" d="M184,264c-2.824,0-5.488,0.576-8,1.472c9.304,3.304,16,12.096,16,22.528s-6.696,19.224-16,22.528  c2.512,0.896,5.176,1.472,8,1.472c13.256,0,24-10.744,24-24S197.256,264,184,264z"/>
<path style="fill:#3F3A34;" d="M184,320c-17.648,0-32-14.352-32-32s14.352-32,32-32s32,14.352,32,32S201.648,320,184,320z M184,272  c-8.824,0-16,7.176-16,16s7.176,16,16,16s16-7.176,16-16S192.824,272,184,272z"/>
<circle style="fill:#6D6E71;" cx="264" cy="288" r="24"/>
<path style="fill:#575759;" d="M264,264c-2.824,0-5.488,0.576-8,1.472c9.304,3.304,16,12.096,16,22.528s-6.696,19.224-16,22.528  c2.512,0.896,5.176,1.472,8,1.472c13.256,0,24-10.744,24-24S277.256,264,264,264z"/>
<path style="fill:#3F3A34;" d="M264,320c-17.648,0-32-14.352-32-32s14.352-32,32-32s32,14.352,32,32S281.648,320,264,320z M264,272  c-8.824,0-16,7.176-16,16s7.176,16,16,16s16-7.176,16-16S272.824,272,264,272z"/>
<circle style="fill:#6D6E71;" cx="344" cy="288" r="24"/>
<path style="fill:#575759;" d="M344,264c-2.824,0-5.488,0.576-8,1.472c9.304,3.304,16,12.096,16,22.528s-6.696,19.224-16,22.528  c2.512,0.896,5.176,1.472,8,1.472c13.256,0,24-10.744,24-24S357.256,264,344,264z"/>
<path style="fill:#3F3A34;" d="M344,320c-17.648,0-32-14.352-32-32s14.352-32,32-32s32,14.352,32,32S361.648,320,344,320z M344,272  c-8.824,0-16,7.176-16,16s7.176,16,16,16s16-7.176,16-16S352.824,272,344,272z"/>
<g>
</g>
<g>
</g>
<g>
</g>
<g>
</g>
<g>
</g>
<g>
</g>
<g>
</g>
<g>
</g>
<g>
</g>
<g>
</g>
<g>
</g>
<g>
</g>
<g>
</g>
<g>
</g>
<g>
</g>
</svg>
