<?xml version="1.0" encoding="iso-8859-1"?>
<!-- Generator: Adobe Illustrator 19.0.0, SVG Export Plug-In . SVG Version: 6.00 Build 0)  -->
<svg xmlns="http://www.w3.org/2000/svg" xmlns:xlink="http://www.w3.org/1999/xlink" version="1.1" id="Layer_1" x="0px" y="0px" viewBox="0 0 496 496" style="enable-background:new 0 0 496 496;" xml:space="preserve">
<rect x="8" y="80" style="fill:#6D6E71;" width="480" height="336"/>
<rect x="448" y="80" style="fill:#575759;" width="40" height="336"/>
<rect x="200" y="80" style="fill:#EFE7E4;" width="96" height="336"/>
<rect x="272" y="80" style="fill:#D8D1D0;" width="24" height="336"/>
<g>
	<path style="fill:#3F3A34;" d="M304,424H192V72h112V424z M208,408h80V88h-80V408z"/>
	<path style="fill:#3F3A34;" d="M496,424H0V72h496V424z M16,408h464V88H16V408z"/>
</g>
<circle style="fill:#A8A8A8;" cx="384" cy="296" r="88"/>
<path style="fill:#9B9B9B;" d="M384,208c-4.08,0-8.064,0.376-12,0.912c42.912,5.864,76,42.568,76,87.088s-33.088,81.224-76,87.088  c3.936,0.536,7.92,0.912,12,0.912c48.6,0,88-39.4,88-88S432.6,208,384,208z"/>
<g>
	<path style="fill:#3F3A34;" d="M384,392c-52.936,0-96-43.064-96-96s43.064-96,96-96s96,43.064,96,96S436.936,392,384,392z M384,216   c-44.112,0-80,35.888-80,80s35.888,80,80,80s80-35.888,80-80S428.112,216,384,216z"/>
	<path style="fill:#3F3A34;" d="M336,296h-16c0-35.288,28.712-64,64-64v16C357.528,248,336,269.528,336,296z"/>
</g>
<circle style="fill:#EFE7E4;" cx="384" cy="296" r="24"/>
<path style="fill:#D8D1D0;" d="M384,272c-2.824,0-5.488,0.576-8,1.472c9.304,3.304,16,12.096,16,22.528s-6.696,19.224-16,22.528  c2.512,0.896,5.176,1.472,8,1.472c13.256,0,24-10.744,24-24S397.256,272,384,272z"/>
<path style="fill:#3F3A34;" d="M384,328c-17.648,0-32-14.352-32-32s14.352-32,32-32s32,14.352,32,32S401.648,328,384,328z M384,280  c-8.824,0-16,7.176-16,16s7.176,16,16,16s16-7.176,16-16S392.824,280,384,280z"/>
<circle style="fill:#A8A8A8;" cx="112" cy="296" r="88"/>
<path style="fill:#9B9B9B;" d="M112,208c-4.08,0-8.064,0.376-12,0.912c42.912,5.864,76,42.568,76,87.088s-33.088,81.224-76,87.088  c3.936,0.536,7.92,0.912,12,0.912c48.6,0,88-39.4,88-88S160.6,208,112,208z"/>
<g>
	<path style="fill:#3F3A34;" d="M112,392c-52.936,0-96-43.064-96-96s43.064-96,96-96s96,43.064,96,96S164.936,392,112,392z M112,216   c-44.112,0-80,35.888-80,80s35.888,80,80,80s80-35.888,80-80S156.112,216,112,216z"/>
	<path style="fill:#3F3A34;" d="M64,296H48c0-35.288,28.712-64,64-64v16C85.528,248,64,269.528,64,296z"/>
</g>
<circle style="fill:#EFE7E4;" cx="112" cy="296" r="24"/>
<path style="fill:#D8D1D0;" d="M112,272c-2.824,0-5.488,0.576-8,1.472c9.304,3.304,16,12.096,16,22.528s-6.696,19.224-16,22.528  c2.512,0.896,5.176,1.472,8,1.472c13.256,0,24-10.744,24-24S125.256,272,112,272z"/>
<path style="fill:#3F3A34;" d="M112,328c-17.648,0-32-14.352-32-32s14.352-32,32-32s32,14.352,32,32S129.648,328,112,328z M112,280  c-8.824,0-16,7.176-16,16s7.176,16,16,16s16-7.176,16-16S120.824,280,112,280z"/>
<circle style="fill:#FFCB57;" cx="64" cy="136" r="24"/>
<path style="fill:#F2BE55;" d="M64,112c-2.824,0-5.488,0.576-8,1.472c9.304,3.304,16,12.096,16,22.528s-6.696,19.224-16,22.528  c2.512,0.896,5.176,1.472,8,1.472c13.256,0,24-10.744,24-24S77.256,112,64,112z"/>
<path style="fill:#3F3A34;" d="M64,168c-17.648,0-32-14.352-32-32s14.352-32,32-32s32,14.352,32,32S81.648,168,64,168z M64,120  c-8.824,0-16,7.176-16,16s7.176,16,16,16s16-7.176,16-16S72.824,120,64,120z"/>
<circle style="fill:#FFCB57;" cx="144" cy="136" r="24"/>
<path style="fill:#F2BE55;" d="M144,112c-2.824,0-5.488,0.576-8,1.472c9.304,3.304,16,12.096,16,22.528s-6.696,19.224-16,22.528  c2.512,0.896,5.176,1.472,8,1.472c13.256,0,24-10.744,24-24S157.256,112,144,112z"/>
<path style="fill:#3F3A34;" d="M144,168c-17.648,0-32-14.352-32-32s14.352-32,32-32s32,14.352,32,32S161.648,168,144,168z M144,120  c-8.824,0-16,7.176-16,16s7.176,16,16,16s16-7.176,16-16S152.824,120,144,120z"/>
<circle style="fill:#98CE59;" cx="248" cy="264" r="24"/>
<path style="fill:#91BF55;" d="M248,240c-2.824,0-5.488,0.576-8,1.472c9.304,3.304,16,12.096,16,22.528s-6.696,19.224-16,22.528  c2.512,0.896,5.176,1.472,8,1.472c13.256,0,24-10.744,24-24S261.256,240,248,240z"/>
<path style="fill:#3F3A34;" d="M248,296c-17.648,0-32-14.352-32-32s14.352-32,32-32s32,14.352,32,32S265.648,296,248,296z M248,248  c-8.824,0-16,7.176-16,16s7.176,16,16,16s16-7.176,16-16S256.824,248,248,248z"/>
<circle style="fill:#98CE59;" cx="248" cy="360" r="24"/>
<path style="fill:#91BF55;" d="M248,336c-2.824,0-5.488,0.576-8,1.472c9.304,3.304,16,12.096,16,22.528s-6.696,19.224-16,22.528  c2.512,0.896,5.176,1.472,8,1.472c13.256,0,24-10.744,24-24S261.256,336,248,336z"/>
<g>
	<path style="fill:#3F3A34;" d="M248,392c-17.648,0-32-14.352-32-32s14.352-32,32-32s32,14.352,32,32S265.648,392,248,392z M248,344   c-8.824,0-16,7.176-16,16s7.176,16,16,16s16-7.176,16-16S256.824,344,248,344z"/>
	<rect x="200" y="200" style="fill:#3F3A34;" width="96" height="16"/>
</g>
<rect x="360" y="120" style="fill:#FF6E6E;" width="48" height="32"/>
<rect x="384" y="120" style="fill:#E56565;" width="24" height="32"/>
<g>
	<path style="fill:#3F3A34;" d="M416,160h-64v-48h64V160z M368,144h32v-16h-32V144z"/>
	<rect x="320" y="128" style="fill:#3F3A34;" width="40" height="16"/>
	<rect x="408" y="128" style="fill:#3F3A34;" width="56" height="16"/>
	<rect x="224" y="104" style="fill:#3F3A34;" width="16" height="16"/>
	<rect x="256" y="104" style="fill:#3F3A34;" width="16" height="16"/>
	<rect x="224" y="136" style="fill:#3F3A34;" width="16" height="16"/>
	<rect x="256" y="136" style="fill:#3F3A34;" width="16" height="16"/>
	<rect x="224" y="168" style="fill:#3F3A34;" width="16" height="16"/>
	<rect x="256" y="168" style="fill:#3F3A34;" width="16" height="16"/>
</g>
<g>
</g>
<g>
</g>
<g>
</g>
<g>
</g>
<g>
</g>
<g>
</g>
<g>
</g>
<g>
</g>
<g>
</g>
<g>
</g>
<g>
</g>
<g>
</g>
<g>
</g>
<g>
</g>
<g>
</g>
</svg>
